<svg id="brand-5" xmlns="http://www.w3.org/2000/svg" width="239.64" height="78.19" viewBox="0 0 239.64 78.19">
  <path id="Path_192" data-name="Path 192" d="M20.512,18.2h6.477v.17c-1.364,0-1.193.341-1.193,2.045V34.392c0,1.875.17,2.216,1.534,2.216v.17H19.149v-.17c1.193,0,1.364-.341,1.364-2.216V18.882L13.694,37.119h-.341L4.661,21.1V29.79c0,3.409,1.023,6.818,4.091,6.818v.17H.4v-.17c2.9,0,3.92-3.238,3.92-6.818V20.757C3.3,18.882,2.445,18.541,1.764,18.37V18.2h7.5L15.74,30.472Z" transform="translate(-0.4 11.958)" fill="#6a7474"/>
  <path id="Path_193" data-name="Path 193" d="M30.092,18.2v.17c-1.193,0-1.7,0-1.7,2.386V33.881c0,2.557.682,2.727,1.7,2.727v.17H21.4v-.17c1.193,0,1.7-.17,1.7-2.727V20.757c0-2.386-.511-2.386-1.7-2.386V18.2Z" transform="translate(14.393 11.958)" fill="#6a7474"/>
  <path id="Path_194" data-name="Path 194" d="M48.633,30.613l.341,5.284c-.682.511-3.409,1.193-6.136,1.193-5.625,0-10.738-3.579-10.738-9.545S37.213,18,42.838,18c3.409,0,5.625.682,6.136,1.193l-.341,5.284h-.17c-.852-5.454-3.75-6.306-5.795-6.306-2.9,0-4.261,2.045-4.261,9.374s1.364,9.374,4.261,9.374c1.875,0,4.772-1.023,5.795-6.306Z" transform="translate(21.93 11.817)" fill="#6a7474"/>
  <path id="Path_195" data-name="Path 195" d="M67.142,36.608v.17H61.858c-1.875,0-2.386-1.193-3.068-6.136-.341-2.727-3.579-2.557-3.579-2.557H54.018V33.71c0,2.557.17,2.727,1.193,2.727v.17H47.2c1.193,0,1.364,0,1.364-2.727V20.757c0-1.7-.17-2.386-1.364-2.386V18.2h7.5c5.284,0,10.056.682,10.056,5.113,0,3.92-3.75,4.772-6.136,4.772,3.068,0,4.6.682,5.965,5.454C65.1,35.585,66.46,36.608,67.142,36.608ZM58.62,23.313c0-5.113-.682-4.772-3.75-4.772h-.852v9.545h.852C58.279,28.086,58.62,28.086,58.62,23.313Z" transform="translate(32.566 11.958)" fill="#6a7474"/>
  <path id="Path_196" data-name="Path 196" d="M83.03,27.815c0,5.284-3.92,9.374-9.715,9.374S63.6,33.1,63.6,27.815A9.5,9.5,0,0,1,73.315,18.1,9.4,9.4,0,0,1,83.03,27.815Zm-6.477,0c0-7.329-.17-9.545-3.238-9.545-3.238,0-3.238,2.216-3.238,9.545s.17,9.2,3.238,9.2C76.554,37.019,76.554,35.144,76.554,27.815Z" transform="translate(44.119 11.887)" fill="#6a7474"/>
  <path id="Path_197" data-name="Path 197" d="M108.957,18.341v.17c-1.023,0-2.727.852-4.6,5.454l-4.6,12.954H98.73c-2.557-5.795-4.091-9.545-5.113-11.931L89.356,36.919H88.333c-6.647-15.681-6.988-16.362-6.988-16.362-.852-2.045-1.193-2.045-2.045-2.216v-.17h8.352v.17c-1.7,0-.341,3.068-.341,3.068L91.4,30.442l2.045-5.965a25.761,25.761,0,0,1-1.7-4.091c-.852-2.045-1.193-2.045-2.045-2.216V18h8.352v.17c-1.7,0-.341,3.068-.341,3.068l3.92,9.2,2.386-6.647c.682-1.875,0-5.454-2.557-5.454v-.17h7.5Z" transform="translate(55.178 11.817)" fill="#6a7474"/>
  <path id="Path_198" data-name="Path 198" d="M109.886,18.2c6.818,15.34,7.329,16.362,7.329,16.362,1.023,2.045,1.875,2.216,2.386,2.216v.17h-9.374v-.17c2.045,0,.511-3.068.511-3.068l-.852-1.875H104.6c-.511,1.193,0,4.943,3.068,4.943v.17H100v-.17c.852,0,2.216-.341,4.261-4.943Zm-2.727,7.329-2.386,5.965h4.943Z" transform="translate(69.759 11.958)" fill="#6a7474"/>
  <path id="Path_199" data-name="Path 199" d="M135.323,18.27v.17c-1.193,0-2.9.852-4.943,5.454L125.1,36.849h-.852c-7.159-15.681-7.5-16.362-7.5-16.362-1.023-2.045-1.364-2.045-2.045-2.216V18.1h8.863v.17c-1.875,0-.341,3.068-.341,3.068l4.091,9.2,2.727-6.818c.852-2.045.341-5.454-2.9-5.454V18.1h8.181Z" transform="translate(80.114 11.887)" fill="#6a7474"/>
  <path id="Path_200" data-name="Path 200" d="M147.41,31.665v5.284H131.9v-.341c1.193,0,1.534-1.534,1.534-3.409V21.779c0-1.7-.341-3.409-1.534-3.409V18.2h15.169v5.454h-.17c0-5.113-7.329-5.284-7.329-5.284h-1.023v8.863h2.216a3.089,3.089,0,0,0,3.068-3.068H144v6.477h-.17c-.341-3.238-3.068-3.068-3.068-3.068h-2.216v9.033h1.023s7.67.341,7.67-4.943Z" transform="translate(92.23 11.958)" fill="#6a7474"/>
  <path id="Path_201" data-name="Path 201" d="M62.988,1.518a14.023,14.023,0,0,1,9.545-.341,17.968,17.968,0,0,1,4.431,2.216c1.193.852,2.386,1.7,3.409,2.386a14.994,14.994,0,0,1,1.7,1.023c.511.341,1.193.511,1.7.852a13.38,13.38,0,0,0,3.75.852,16.177,16.177,0,0,0,7.5-1.193c.17.17-.17.852.341.682,1.7-.341,2.045,0,2.216.341q0,.256-.511.511c-.341.17-.511.17-.17.17-1.193.682-3.579,1.534-2.045,1.364a5.268,5.268,0,0,0,1.364-.341,3.236,3.236,0,0,1,1.534-.511c.682,0,0,1.023.511,1.023.511-.341,1.364-.852,1.875-1.193.682-.17,0,1.023.511.682a12.814,12.814,0,0,0,4.431-4.6c.17,0,.341,0,.341.17.17,0,.17.17-.17.682A19.377,19.377,0,0,1,92.3,14.472a20.242,20.242,0,0,1-7.84-.17,17.888,17.888,0,0,1-3.92-1.364c-1.193-.682-2.386-1.363-3.409-2.045a48.757,48.757,0,0,0-4.943-3.579,8.877,8.877,0,0,0-4.772-.852,7.854,7.854,0,0,0-4.431,1.7,9.349,9.349,0,0,0-3.068,3.75c-.682,1.364-.852.17-.682-1.193,0,.511-.511.341-.511.682-.341-.17-.682-1.193.341-2.9A4.272,4.272,0,0,0,58.386,9.7c-.341.341-.341-.17-.511-.341.17-.511.511-.852.341-.852s-.341-.17-.511-.341a10.18,10.18,0,0,0-1.023,1.875c.17-.511.511-1.023.341-1.023s-.341-.17-.511-.341c.341-1.023,1.7-2.216,2.386-3.068l-.341-.341A11.4,11.4,0,0,0,56.17,8.507.677.677,0,0,0,56,7.654c.852-1.534,2.386-2.727,3.409-4.091a8.537,8.537,0,0,0-1.364,1.193c.17-.682,1.023-1.364,2.045-2.045A20.792,20.792,0,0,0,62.988,1.518Z" transform="translate(38.765 -0.506)" fill="#244d4d"/>
  <path id="Path_202" data-name="Path 202" d="M62.988,39.018a14.023,14.023,0,0,1,9.545-.341,17.969,17.969,0,0,1,4.431,2.216c1.193.852,2.386,1.7,3.409,2.386a14.994,14.994,0,0,1,1.7,1.023c.511.341,1.193.511,1.7.852a13.38,13.38,0,0,0,3.75.852,16.177,16.177,0,0,0,7.5-1.193c.17.17-.17.852.341.682,1.7-.341,2.045,0,2.216.341q0,.256-.511.511c-.341.17-.511.17-.17.17-1.193.682-3.579,1.534-2.045,1.364a5.269,5.269,0,0,0,1.364-.341,3.236,3.236,0,0,1,1.534-.511c.682,0,0,1.023.511,1.023.511-.341,1.364-.852,1.875-1.193.682-.17,0,1.023.511.682a12.813,12.813,0,0,0,4.431-4.6c.17,0,.341,0,.341.17.17,0,.17.17-.17.682A19.377,19.377,0,0,1,92.3,51.972a20.242,20.242,0,0,1-7.84-.17,17.887,17.887,0,0,1-3.92-1.364c-1.193-.682-2.386-1.364-3.409-2.045a48.759,48.759,0,0,0-4.943-3.579,8.877,8.877,0,0,0-4.772-.852,7.854,7.854,0,0,0-4.431,1.7,9.349,9.349,0,0,0-3.068,3.75c-.682,1.364-.852.17-.682-1.193,0,.511-.511.341-.511.682-.341-.17-.682-1.193.341-2.9a4.272,4.272,0,0,0-.682,1.193c-.341.341-.341-.17-.511-.341.17-.511.511-.852.341-.852s-.341-.17-.511-.341a10.179,10.179,0,0,0-1.023,1.875c.17-.511.511-1.023.341-1.023s-.341-.17-.511-.341c.341-1.023,1.7-2.216,2.386-3.068l-.341-.341a11.4,11.4,0,0,0-2.386,3.238.677.677,0,0,0-.17-.852c.852-1.534,2.386-2.727,3.409-4.091a8.537,8.537,0,0,0-1.364,1.193c.17-.682,1.023-1.364,2.045-2.045C60.943,39.871,62.136,39.359,62.988,39.018Z" transform="translate(38.765 25.909)" fill="#244d4d"/>
</svg>
