<svg id="brand-3" xmlns="http://www.w3.org/2000/svg" width="155.65" height="122.051" viewBox="0 0 155.65 122.051">
  <path id="Path_164" data-name="Path 164" d="M25.83,36.932a50.46,50.46,0,0,1,10.623-5.307c2-.737,3.849-1.327,5.85-2.064,2-.59,4-1.179,6.158-1.621,8.16-2.211,16.473-3.833,23.709-6.633a111.048,111.048,0,0,1,28.02-6.928l3.695-.442c1.232-.147,2.463-.147,3.695-.295,2.463-.147,4.927-.295,7.236-.442h10.777c1.232,0,2.309.147,3.541.147-.154,1.769-1.694,4.422-.308,5.454,6,2.948,5.7,6.633,5.388,10.318-.154,1.769-4.311-.147-3.079,1.621a26.512,26.512,0,0,0-6.928.442c-1.847.442-2.617,1.179-.462,2.064,1.386,1.769,7.236.295,8.468,3.1s-1.694,5.454-.462,8.107c1.386,0,4,.295,5.388.442,1.232,1.916-1.847,5.307-.462,5.454,1.847,1.179,4.157,1.474,6.62,1.769s5.081.442,7.7.737c-.154.884,0,1.916-.154,2.653a1.312,1.312,0,0,1-.462,1.032,1.99,1.99,0,0,1-1.386.59c-22.324-2.506-45.263-.59-67.125,4.275A272.646,272.646,0,0,0,19.364,83.807c-4.927,1.621-3.695-3.243-1.694-7.518-.616,1.474-2.155-.884-2.771.442a7.454,7.454,0,0,1-.77-5.012,8.282,8.282,0,0,1,1.078-3.1,8.663,8.663,0,0,1,2.463-2.8c-1.232.59-2.463,1.327-3.541,1.916-1.694-.147-1.386-2.358-2.309-3.98,1.232-.737,2.463-1.327,2-2.211-.462-.737-1.386-2.358-1.847-3.243-1.232.737-3.695,2.064-4.927,2.8,1.232-.737,2.463-1.327,2-2.211-.462-.737-1.386-2.358-1.847-3.1,2-2.358,6.928-2.506,9.083-4.717l-1.232-2.506c-3.079.59-6.62,3.243-9.237,4.717.77-1.474.308-2.358-.616-3.833a11.8,11.8,0,0,1,2.925-1.769c1.078-.442,2.155-.737,3.233-1.179a10.45,10.45,0,0,0,5.542-3.98c-1.386.59-2.771,1.327-4.157,1.916a5.2,5.2,0,0,1,1.694-3.243,13.079,13.079,0,0,1,3.541-1.769C20.75,38.7,23.829,38.111,25.83,36.932Z" transform="translate(2.652 5.226)" fill="#244d4d"/>
  <path id="Path_165" data-name="Path 165" d="M3.333,77.547a5.643,5.643,0,0,1,3.541,1.179,4.158,4.158,0,0,1,1.386,3.1,3.736,3.736,0,0,1-1.386,3.1A4.894,4.894,0,0,1,3.333,86.1H.1V77.4H3.333Zm-.924,7.075h.924a2.723,2.723,0,0,0,2-.737,2.845,2.845,0,0,0,.77-2.064,3.114,3.114,0,0,0-.77-2.064,3,3,0,0,0-2-.737H2.409Z" transform="translate(-0.1 35.66)" fill="#6a7474"/>
  <path id="Path_166" data-name="Path 166" d="M17.342,77.4v1.621H13.955v1.916h2.925v1.621H13.955v2.064h3.387v1.621H11.8V77.4Z" transform="translate(6.213 35.66)" fill="#6a7474"/>
  <path id="Path_167" data-name="Path 167" d="M25.233,79.116c-.308,0-.462,0-.616.147a.718.718,0,0,0,0,1.179,2.118,2.118,0,0,0,.616.442c.308.147.616.147.924.295s.616.147.924.295l.924.442a1.486,1.486,0,0,1,.616.737,2.645,2.645,0,0,1,.308,1.032A2.549,2.549,0,0,1,28,85.6a3.273,3.273,0,0,1-2.463.737,4.036,4.036,0,0,1-2.463-.737,2.428,2.428,0,0,1-.924-2.064h2.309a.954.954,0,0,0,1.078,1.032,1.2,1.2,0,0,0,.77-.295,1.1,1.1,0,0,0,.308-.59.756.756,0,0,0-.308-.59,2.119,2.119,0,0,0-.616-.442c-.308-.147-.616-.147-.924-.295s-.616-.147-.924-.295l-.924-.442a1.486,1.486,0,0,1-.616-.737A2.645,2.645,0,0,1,22,79.853a2.156,2.156,0,0,1,.924-1.916,4.036,4.036,0,0,1,2.463-.737,4.342,4.342,0,0,1,2.463.59,2.256,2.256,0,0,1,.924,2.064H26.311A1.1,1.1,0,0,0,26,79.116C25.695,79.264,25.541,79.116,25.233,79.116Z" transform="translate(11.716 35.565)" fill="#6a7474"/>
  <path id="Path_168" data-name="Path 168" d="M33,86.2V77.5h2.155v8.7Z" transform="translate(17.652 35.707)" fill="#6a7474"/>
  <path id="Path_169" data-name="Path 169" d="M42.086,85.112a4.488,4.488,0,0,1,0-6.486A4.63,4.63,0,0,1,45.473,77.3a5.957,5.957,0,0,1,2.771.737,4.186,4.186,0,0,1,1.694,2.211H47.32a1.9,1.9,0,0,0-1.694-1.032,2.606,2.606,0,0,0-1.847.737,2.848,2.848,0,0,0,0,3.538,2.522,2.522,0,0,0,1.694.737,1.793,1.793,0,0,0,1.232-.442,1.479,1.479,0,0,0,.616-1.032H44.7V81.133h4.927v1.621a4.41,4.41,0,0,1-1.386,2.211,5.393,5.393,0,0,1-1.386.884,5.754,5.754,0,0,1-1.694.295A3.333,3.333,0,0,1,42.086,85.112Z" transform="translate(21.806 35.612)" fill="#6a7474"/>
  <path id="Path_170" data-name="Path 170" d="M59,77.4H61.16v8.844H59l-3.695-5.6v5.6H53V77.4h2.155L58.85,83V77.4Z" transform="translate(28.443 35.66)" fill="#6a7474"/>
  <path id="Path_171" data-name="Path 171" d="M78.7,77.5h2.155v8.7H78.7V82.512H75.155V86.2H73V77.5h2.155v3.538H78.7V77.5Z" transform="translate(39.234 35.707)" fill="#6a7474"/>
  <path id="Path_172" data-name="Path 172" d="M84.8,82.659V77.5h2.155v5.159a1.419,1.419,0,0,0,.462,1.179,1.552,1.552,0,0,0,1.232.442,1.793,1.793,0,0,0,1.232-.442,1.634,1.634,0,0,0,.462-1.179V77.5H92.5v5.159a3.28,3.28,0,0,1-.616,2.064A2.6,2.6,0,0,1,90.5,85.9a4.246,4.246,0,0,1-1.847.442A3.609,3.609,0,0,1,84.8,82.659Z" transform="translate(45.601 35.707)" fill="#6a7474"/>
  <path id="Path_173" data-name="Path 173" d="M96.5,77.5h4a3.1,3.1,0,0,1,2.155.59,1.845,1.845,0,0,1,.77,1.621c0,1.032-.616,1.621-1.847,2.064a2.984,2.984,0,0,1,1.54.737,2.559,2.559,0,0,1,.616,1.474,1.872,1.872,0,0,1-.77,1.621,3.3,3.3,0,0,1-2.309.59H96.5V77.5Zm2.155,1.621v1.916h1.386a1.2,1.2,0,0,0,.77-.295,1.036,1.036,0,0,0,0-1.474,1.2,1.2,0,0,0-.77-.295H98.655Zm0,5.454h1.694a1.2,1.2,0,0,0,.77-.295,1.036,1.036,0,0,0,0-1.474,1.2,1.2,0,0,0-.77-.295H98.655Z" transform="translate(51.914 35.707)" fill="#6a7474"/>
  <path id="Path_174" data-name="Path 174" d="M78.974,42.121a13.442,13.442,0,0,1,4.773-2.948,2.607,2.607,0,0,1,1.847-.147,21.615,21.615,0,0,1,2.771.442c0,.884-.77,1.327-1.386,1.769A123.524,123.524,0,0,0,78.2,50.228a1.88,1.88,0,0,0-.616,1.916c.308,1.179.462,2.506.77,3.538.154.884.308,1.621-.616,2.358-.616.442-.462,1.032-.154,1.916.308-.59.462-1.032.616-1.327.77-.147,1.078,1.474.308,2.211-.154.147-.154.147-.154.295-.154,0-.154.147-.462.59.924,3.1,2,6.486,2.771,9.876a13.682,13.682,0,0,1,.462,2.653,18.67,18.67,0,0,0,2.309,7.518c.924,1.916,1.694,3.833,2.463,5.749.462,1.327.924,2.8,1.386,4.127a20.337,20.337,0,0,1,.616,3.243,7.324,7.324,0,0,0-1.54-.737.756.756,0,0,1-.308.59c-.154.147,0,.442,0,.737-1.078.442-2.463.295-2,1.769a3.6,3.6,0,0,1-2.463.147,14.305,14.305,0,0,1-2.617-1.327,29.888,29.888,0,0,1-6.466-7.96c-.154-.442-.616-1.032,0-1.621.154,0-.154-.737-.154-1.179-.616-.884-1.078-1.916-1.694-2.8a73.184,73.184,0,0,1-7.39-15.625c-.308-.59-.616-1.179-.924-1.916-.462.442-.924.737-1.232,1.032-1.847,2.358-4.465,3.98-6.928,5.749-2,1.179-4.157,2.506-6.158,3.538a9.673,9.673,0,0,0-3.541,5.749c-1.078,4.422-3.079,8.4-4.311,12.677a2.96,2.96,0,0,1-1.386,1.327c-2.925,1.032,1.694,2.506-1.386,2.506-6.466,2.8-4.773-1.916-8.006-4.422,1.386-3.243,2.771-6.486,4.311-9.581.77-1.621,1.694-3.1,2.463-4.57,1.386-2.211-.154.295.924-2.358a14.567,14.567,0,0,0-1.54-.737c-1.078-.442-2.155-.737-3.233-1.179a1.89,1.89,0,0,1-1.232-1.916,2.734,2.734,0,0,1,2.617-.147,43.231,43.231,0,0,0,4.311.59,1.575,1.575,0,0,0,1.078-.59c1.078-1.916,1.847-3.98,2.771-5.749.154-.442.154-.884.308-1.179,2.463-4.717,3.541-10.024,5.235-14.888,2-6.044,3.695-12.087,5.7-17.983a10.808,10.808,0,0,0,.462-6.928,78.371,78.371,0,0,1-1.078-8.4A66.108,66.108,0,0,1,53.879,2.911c.308-1.621.77-1.769,2.309-1.916C58.344.995,60.345.847,62.5.7a3.8,3.8,0,0,1,2.155.442,35.106,35.106,0,0,1,4,2.358A6.961,6.961,0,0,1,70.045,5.27a20.233,20.233,0,0,1,2.309,8.4c.616,3.833,1.078,7.518,1.54,11.35.154.442.154.884.308,1.474a26.494,26.494,0,0,1,.77,8.55,32.252,32.252,0,0,0,.616,6.633c.154.884.462,1.769.616,2.653.154.147.154.147.308.147C77.434,43.448,78.358,42.71,78.974,42.121ZM59.422,58.63a1.851,1.851,0,0,0,.77-2.064c-.616-2.064-1.078-4.127-1.54-6.191-3.079-13.856-4.157-5.454-6.466,3.833C47.259,65.853,51.416,67.475,59.422,58.63Z" transform="translate(15.709 -0.7)" fill="#a4aaaa"/>
</svg>
