<svg id="brand-2" xmlns="http://www.w3.org/2000/svg" width="175.203" height="119.165" viewBox="0 0 175.203 119.165">
  <path id="Path_108" data-name="Path 108" d="M61.1,24.869v.338c-1.35,0-3.545,1.182-6.245,7.427L48.613,50.018h-1.35c-3.376-7.764-5.4-12.659-6.92-15.866L34.6,50.018h-1.35C24.307,29.089,23.8,28.076,23.8,28.076c-1.182-2.869-1.688-2.869-2.7-2.869v-.338H32.24v.338c-2.194,0-.506,4.051-.506,4.051l5.4,12.153L40,33.477c-2.194-5.064-2.363-5.57-2.363-5.57-1.182-2.869-1.688-2.869-2.7-2.869V24.7h11.14v.338c-2.194,0-.506,4.051-.506,4.051l5.4,12.322,3.207-8.946c.844-2.532.169-7.427-3.545-7.427V24.7H61.1Z" transform="translate(14.177 16.147)" fill="#6a7474"/>
  <path id="Path_109" data-name="Path 109" d="M65.155,50.231v.338H56.209v-.338c1.35-.338,1.35-2.025,1.35-3.713V39.26c0-2.025-.675-3.038-2.532-3.038a2.838,2.838,0,0,0-2.194,1.519v8.608c0,2.025.169,3.376,1.519,3.713V50.4H45.406v-.338c1.35-.338,1.35-1.857,1.35-3.713v-18.4c0-1.182-.506-1.688-1.857-2.194v-.338L52.833,23.9V37.234c.844-2.025,2.869-3.713,4.895-3.713,2.869,0,5.908,1.182,5.908,5.4V46.18C63.636,48.374,63.8,49.893,65.155,50.231Z" transform="translate(30.549 15.597)" fill="#6a7474"/>
  <path id="Path_110" data-name="Path 110" d="M67.152,49.337v.338H58.206v-.338c1.35-.338,1.35-1.857,1.35-3.713V37.015c0-1.182-.338-1.688-1.857-2.194v-.338l7.933-1.519V45.623C65.8,47.48,65.971,49,67.152,49.337ZM58.882,28.576a3.376,3.376,0,1,1,3.376,3.376A3.386,3.386,0,0,1,58.882,28.576Z" transform="translate(39.353 16.491)" fill="#6a7474"/>
  <path id="Path_111" data-name="Path 111" d="M77.466,45.2l.169.169a5.23,5.23,0,0,1-5.064,3.545c-2.869,0-6.076-1.182-6.076-5.4V32.539H64.3V32.2h2.194V27.475L72.4,26.8v5.57h4.557v.338H72.4V43.679c0,2.025.675,2.869,2.7,2.869A3.755,3.755,0,0,0,77.466,45.2Z" transform="translate(43.894 17.591)" fill="#6a7474"/>
  <path id="Path_112" data-name="Path 112" d="M89.6,37.907H79.983c0,5.4,1.688,6.752,4.051,7.427,1.857.338,4.22-.675,4.895-3.713h.338c-.506,2.7-3.038,5.232-7.427,5.232A8.357,8.357,0,0,1,73.4,38.413c0-6.076,4.557-8.608,8.946-8.608C85.89,29.636,89.6,31.155,89.6,37.907Zm-5.232-.338c0-4.557-.506-7.6-2.025-7.6-1.688,0-2.532,4.051-2.532,7.6Z" transform="translate(50.153 19.65)" fill="#6a7474"/>
  <path id="Path_113" data-name="Path 113" d="M36.5,48.895V44h1.182v4.895Z" transform="translate(24.77 29.423)" fill="#244d4d"/>
  <path id="Path_114" data-name="Path 114" d="M43.107,44h1.182v4.895H43.107l-2.025-3.038v3.038H39.9V44h1.182l2.025,3.038Z" transform="translate(27.109 29.423)" fill="#244d4d"/>
  <path id="Path_115" data-name="Path 115" d="M45,44.944V44.1h3.882v.844h-1.35v3.882H46.35V44.944Z" transform="translate(30.617 29.492)" fill="#244d4d"/>
  <path id="Path_116" data-name="Path 116" d="M52.669,44v.844H50.982v1.013H52.5V46.7H50.982v1.182h1.688v.844H49.8V44Z" transform="translate(33.919 29.423)" fill="#244d4d"/>
  <path id="Path_117" data-name="Path 117" d="M55.282,47.038v1.857H54.1V44h1.857a1.917,1.917,0,0,1,1.35.506,1.459,1.459,0,0,1,.506,1.013c0,.338-.169.506-.338.844a.928.928,0,0,1-.844.506l1.182,2.025h-1.35Zm0-2.025v1.182h.675a.62.62,0,0,0,.506-.169c.169-.169.169-.169.169-.338a.62.62,0,0,0-.169-.506c-.169-.169-.169-.169-.338-.169Z" transform="translate(36.877 29.423)" fill="#244d4d"/>
  <path id="Path_118" data-name="Path 118" d="M58.9,48.895V44h1.182v4.895Z" transform="translate(40.179 29.423)" fill="#244d4d"/>
  <path id="Path_119" data-name="Path 119" d="M62.775,48.289a2.305,2.305,0,0,1-.675-1.857,2.538,2.538,0,0,1,.675-1.857,2.305,2.305,0,0,1,1.857-.675,1.957,1.957,0,0,1,1.688.675,2.305,2.305,0,0,1,.675,1.857,2.538,2.538,0,0,1-.675,1.857,2.167,2.167,0,0,1-1.688.675A2.008,2.008,0,0,1,62.775,48.289Zm2.7-.675a2.4,2.4,0,0,0,.338-1.013,1.427,1.427,0,0,0-.338-1.013c-.169-.338-.506-.338-1.013-.338a2.4,2.4,0,0,0-1.013.338,2.4,2.4,0,0,0-.338,1.013,1.427,1.427,0,0,0,.338,1.013c.169.338.506.338,1.013.338A1.427,1.427,0,0,0,65.476,47.613Z" transform="translate(42.38 29.354)" fill="#244d4d"/>
  <path id="Path_120" data-name="Path 120" d="M68.782,47.038v1.857H67.6V44h1.857a1.917,1.917,0,0,1,1.35.506,1.459,1.459,0,0,1,.506,1.013c0,.338-.169.506-.338.844a.928.928,0,0,1-.844.506l1.182,2.025h-1.35Zm0-2.025v1.182h.675a.62.62,0,0,0,.506-.169c.169-.169.169-.169.169-.338a.62.62,0,0,0-.169-.506c-.169-.169-.169-.169-.506-.169Z" transform="translate(46.164 29.423)" fill="#244d4d"/>
  <path id="Path_121" data-name="Path 121" d="M42.157,49.844c-.169,0-.338,0-.338.169-.169,0-.169.169-.169.338s0,.338.169.338c.169.169.169.169.338.169s.338.169.506.169.338.169.506.169.338.169.506.169c.169.169.338.169.338.338.169.169.169.338.169.675a1.2,1.2,0,0,1-.506,1.013,1.917,1.917,0,0,1-1.35.506,3.18,3.18,0,0,1-1.35-.338,1.314,1.314,0,0,1-.506-1.182H41.65c0,.338.169.506.675.506.169,0,.338,0,.338-.169.169-.169.169-.169.169-.338s0-.169-.169-.338-.169-.169-.338-.169-.338-.169-.506-.169-.338-.169-.506-.169-.338-.169-.506-.169c-.169-.169-.338-.169-.338-.338-.169-.169-.169-.338-.169-.675a1.021,1.021,0,0,1,.506-1.013A1.819,1.819,0,0,1,42.157,49a3.18,3.18,0,0,1,1.35.338,1.314,1.314,0,0,1,.506,1.182h-1.35c0-.169,0-.338-.169-.338C42.494,49.844,42.325,49.844,42.157,49.844Z" transform="translate(27.384 32.863)" fill="#244d4d"/>
  <path id="Path_122" data-name="Path 122" d="M44.9,49.844V49h3.882v.844h-1.35v3.882H46.25V49.844Z" transform="translate(30.549 32.863)" fill="#244d4d"/>
  <path id="Path_123" data-name="Path 123" d="M49.7,51.869V49h1.182v2.869c0,.338,0,.506.169.675s.338.169.675.169.506,0,.675-.169.169-.338.169-.675V49h1.182v2.869a2.44,2.44,0,0,1-.338,1.182,1.685,1.685,0,0,1-.844.675,2.141,2.141,0,0,1-1.013.169,1.917,1.917,0,0,1-1.35-.506A2.063,2.063,0,0,1,49.7,51.869Z" transform="translate(33.85 32.863)" fill="#244d4d"/>
  <path id="Path_124" data-name="Path 124" d="M56.488,49a2.305,2.305,0,0,1,1.857.675,2.167,2.167,0,0,1,.675,1.688,1.957,1.957,0,0,1-.675,1.688,2.538,2.538,0,0,1-1.857.675H54.8V49Zm-.675,3.882h.506a1.231,1.231,0,0,0,1.35-1.519,2.439,2.439,0,0,0-.338-1.182,1.24,1.24,0,0,0-1.013-.338h-.506Z" transform="translate(37.359 32.863)" fill="#244d4d"/>
  <path id="Path_125" data-name="Path 125" d="M59.8,53.895V49h1.182v4.895Z" transform="translate(40.798 32.863)" fill="#244d4d"/>
  <path id="Path_126" data-name="Path 126" d="M63.775,53.289a2.305,2.305,0,0,1-.675-1.857,2.538,2.538,0,0,1,.675-1.857,2.305,2.305,0,0,1,1.857-.675,1.778,1.778,0,0,1,1.688.675,2.305,2.305,0,0,1,.675,1.857,2.538,2.538,0,0,1-.675,1.857,2.167,2.167,0,0,1-1.688.675A2.1,2.1,0,0,1,63.775,53.289Zm2.7-.844a2.4,2.4,0,0,0,.338-1.013,1.427,1.427,0,0,0-.338-1.013c-.169-.338-.506-.338-1.013-.338a2.4,2.4,0,0,0-1.013.338,2.4,2.4,0,0,0-.338,1.013,1.427,1.427,0,0,0,.338,1.013c.169.338.506.338,1.013.338A1.24,1.24,0,0,0,66.476,52.445Z" transform="translate(43.068 32.794)" fill="#244d4d"/>
  <path id="Path_127" data-name="Path 127" d="M101.569,69.982c.169.338.506.169.506-.675L101.4,68.8Z" transform="translate(69.414 46.483)" fill="#244d4d"/>
  <path id="Path_128" data-name="Path 128" d="M102.919,66.874c-.338-1.013-.844-2.025-1.519-1.519.675,1.013.338,1.182,1.182,2.194,0,.844-.169,1.35-.506,1.35.169.338-.169,1.35.338,1.688a5.935,5.935,0,0,0,.169-3.882C102.582,66.536,102.75,66.874,102.919,66.874Z" transform="translate(69.414 44.02)" fill="#244d4d"/>
  <path id="Path_129" data-name="Path 129" d="M89.1,1.769c.338,0,.506,0,.506-.169C89.269,1.6,89.1,1.6,89.1,1.769Z" transform="translate(60.953 0.257)" fill="#244d4d"/>
  <path id="Path_130" data-name="Path 130" d="M102.9,19.25l.169-1.35C102.9,17.9,102.9,18.575,102.9,19.25Z" transform="translate(70.446 11.469)" fill="#244d4d"/>
  <path id="Path_131" data-name="Path 131" d="M101.3,59.7c0,.338.169.506.169.675A1.015,1.015,0,0,0,101.3,59.7Z" transform="translate(69.345 40.223)" fill="#244d4d"/>
  <path id="Path_132" data-name="Path 132" d="M103.2,31.7v.338c0,.169.169.169.338.338Z" transform="translate(70.652 20.962)" fill="#244d4d"/>
  <path id="Path_133" data-name="Path 133" d="M103.644,41.975c0-.338-.506-.506-.844-.675a1.289,1.289,0,0,1,.338.844C103.306,42.144,103.475,41.975,103.644,41.975Z" transform="translate(70.377 27.566)" fill="#244d4d"/>
  <path id="Path_134" data-name="Path 134" d="M103.3,24.669a.165.165,0,0,0,.169-.169A.165.165,0,0,0,103.3,24.669Z" transform="translate(70.721 16.009)" fill="#244d4d"/>
  <path id="Path_135" data-name="Path 135" d="M102.438,69.6H102.1v.338Z" transform="translate(69.896 47.033)" fill="#244d4d"/>
  <path id="Path_136" data-name="Path 136" d="M.4,14.123c.506-1.688.675,2.7,1.181.169C1.413,14.63.738,12.1.4,14.123Z" transform="translate(-0.062 8.326)" fill="#244d4d"/>
  <path id="Path_137" data-name="Path 137" d="M53.7,1c0,.169.169.169.338.169A.523.523,0,0,1,53.7,1Z" transform="translate(36.602 -0.156)" fill="#244d4d"/>
  <path id="Path_138" data-name="Path 138" d="M45.913,1.552c-.338,0-.506-.169-1.013,0h.169C45.238,1.383,45.406,1.383,45.913,1.552Z" transform="translate(30.549 0.136)" fill="#244d4d"/>
  <path id="Path_139" data-name="Path 139" d="M36.9,1.5a.523.523,0,0,1,.338.169h.506Z" transform="translate(25.045 0.188)" fill="#244d4d"/>
  <path id="Path_140" data-name="Path 140" d="M64.8,68.1a2.33,2.33,0,0,1,.675.506C65.306,68.1,67.332,68.1,64.8,68.1Z" transform="translate(44.237 46.001)" fill="#244d4d"/>
  <path id="Path_141" data-name="Path 141" d="M101.569,59.906c-.169,0-.169-.169-.169-.506v.506Z" transform="translate(69.414 40.017)" fill="#244d4d"/>
  <path id="Path_142" data-name="Path 142" d="M46.063,4.269,43.7,4.1C44.544,4.1,45.219,4.269,46.063,4.269Z" transform="translate(29.723 1.976)" fill="#244d4d"/>
  <path id="Path_143" data-name="Path 143" d="M40.388,4.338A3.18,3.18,0,0,0,39.038,4c-.169,0-.169,0-.338.169Z" transform="translate(26.284 1.908)" fill="#244d4d"/>
  <path id="Path_144" data-name="Path 144" d="M124.966,113.757c-2.194,0-1.013.675-1.519,1.182-2.532.169-1.182-.506-2.025-1.013-1.688.169-2.869.844-4.051.844-.169-.169-.338-.169,0-.338-1.688.675-5.064,0-7.089.844-.169,0-.169-.169-.338-.169a1.427,1.427,0,0,1,.338,1.013c-1.013,0-1.857.506-2.194,0,.675,0,.675-.169,1.013-.338l-1.013.169c-.844-.675,1.35-.169,1.35-.844-2.025.169-4.389.844-5.908.675-.338-.675,3.545-.169,1.519-.844l2.363.338c-1.857-1.013,1.519,0-.169-1.013-3.038-.169-3.545.338-6.583.169-.675.338.169.506-.506,1.013-4.389.675-3.545-1.688-6.752-.844-.844.506-1.182,1.35-3.545.844l.844-.844c-3.038,0-1.688,1.182-4.895.675a6.516,6.516,0,0,1,1.857-.338c-2.025-.675-1.519.506-3.038.506l-.338-.675c-3.207.169-6.752.675-10.3.675.169-.169.844-.506,0-.675a93.17,93.17,0,0,1-13.841-.506l-1.688.675c-.338,0-.675-.338-.338-.338-1.688-.169-.169.338-.844.675-1.013,0-1.35-.338-.675-.506-3.038.506-8.439,1.013-11.646.506l.675-.169c-2.363-.169-2.7,1.182-5.064.675l.506-.169c-5.232-.338-11.14.338-15.191-.675-.844.844-5.232-.338-5.57.844-3.038-.675-2.194-.844-6.414-1.182-1.182,0-1.688.675-3.038.844v-.675l-1.857.675L8,114.77l-1.35.169c.506,0,1.182.338,1.013.506H6.476a.62.62,0,0,1-.506-.169c-.338-.169-.506-.338-.338-.506s.169-.338.338-.338c-.169,0-.169-.169-.338-.338v-.844l-.169-1.182a5.1,5.1,0,0,1,.506,1.519c-.675-2.532.675-.506,0-2.869-.169.338-.338-.169-.506-.169a21.815,21.815,0,0,0,.169-5.908l.506.338c.169-3.545-.169-7.6-.169-11.646-.169,1.519-1.013,1.182-1.013,0l.675-.506c-.338-.844-.169,1.182-.675-.338,0-1.519.675-1.013,1.013-.169L5.8,90.464c.169-.169.338.338.506.506-.338-.675.675-3.207,0-4.22l.169-.169c0-4.051-.169-5.908-.338-9.283-.506,0-.506-1.35-.844-2.363a57.812,57.812,0,0,0,.506-8.1c-.338-2.025-.506-.675-.844-1.519.506-.169.506-3.038.844-1.519-.169-3.545-.169-4.557-.506-8.946-.169.506-.338,1.013-.506.675-.169-.844.169-1.857.506-1.688v.169c-.844-5.064,1.519-11.478.506-15.529v.169L5.295,34.6c.169-1.857.338,1.182.675-.338-.844-4.389.169-7.089-.506-10.634,1.519-2.869-.169-10.127.844-13.841l-.338.169c-.338-1.013.169-1.182.338-1.857C5.97,8.264,5.97,9.108,5.8,8.6V6.576H8.839c1.857,0,3.544.169,5.4.338,3.545.169,7.258.506,10.8.506,3.207.169,1.857-1.857,5.739-1.013L29.6,7.083c6.414-.844,13,0,19.242-.675-.338.169-.338.338-1.013.338,1.35.506,4.895,0,4.895-.338,1.013,0,.169.338.844.506,1.35.338,3.376-.675,4.051-.169.169,0-.338.169-.675.169.844-.169,4.051,0,3.207-.506,2.363.338,4.389-.169,6.245,0,1.182-.675,4.051.338,4.388-.506-.169.844,4.051.675,5.57.338-.506.338,1.35.338.675.675,1.688,0,3.207-.169,2.869-.675,3.038,1.182,6.245-.844,7.933.506,5.064-.506,9.621-.844,14.178-1.013-.169.844-4.895.169-4.726,1.013,4.22-.338,6.752-1.182,10.971-1.013,1.013.169-.675.338-1.013.506,4.22-.338,8.271,0,11.984-.338,0,.169-.338.169-.844.169.675,0,1.688.169,1.688-.338L119.4,5.9c-1.182-.675,3.038-1.35,3.038-1.519-1.35,1.182,3.713.338,1.688,1.857.506,0,1.182-.338,1.013-.506.675,0,1.013.169.169.506,2.7-.169,1.688-.675,4.22-.675,0,.169-.506.338-.675.506a11.274,11.274,0,0,1,4.557-.675c-.169.169.169.338-.506.338,3.545,0,5.908-1.013,9.79-.675-1.182.844,1.35.338,1.519,1.013l2.025-.169-.844-.338c1.857,0,3.376-.506,5.064-.338l-1.35.338,3.376-.169-1.857-.338c1.857-.338-.169-1.013,2.194-.675a8.656,8.656,0,0,1,2.7.506,8.886,8.886,0,0,1,3.207-.338c.338.169-.338.844,0,1.013.844-.675,4.22-.169,5.4-.844a.674.674,0,0,0-.338.675l.675-.506c.844.169,1.013.169.844.506,2.532.169-.844-1.013,2.194-.506-.169,0-.169.169-.675.169h3.207c.675,0,1.519-.169,2.363-.169V6.408c-.844.675-.169-1.35-.844-.338V7.589c.169,1.013.169,2.025.338,3.038a36.565,36.565,0,0,1,.169,6.076l.169-.675c1.013.506-.506,2.869,0,4.895,0-.506-.675-.675-.506-.506-.169,2.7.338,5.4.675,9.452l-.338-.506c-.169,1.519-.169,4.051-.338,5.739.338.506.169,1.519.675.844-1.519,5.232.844,9.959-.506,14.516,0-.506-.169-1.35-.169-.844l.338,3.882c.506-.338.338-.506.675-1.35a5.636,5.636,0,0,1,.506,2.532c-.338-1.688-.675,0-1.013.844.169-.169.338.169.506,0-.844,2.025,1.013.338.338,3.207l-.169-.169a9.865,9.865,0,0,1,.338,3.207c-.506.506-.338-1.182-.675-1.182,0,1.519,1.013,3.207.506,4.557-.169-.675-.169-1.688-.338-2.363a4.722,4.722,0,0,0-.506,2.869v-.169l-.338,2.7.169-.675c1.35,2.025.338,4.051,1.182,6.752-.844-2.532-.506-.506-1.182-.675-.169.675-.338,1.688-.506,1.35.506,1.182-.338,2.194.338,3.882-.169,0,0,1.35-.506,1.013.169,1.688.338-.338.675-.169.675,2.532-.844,5.908.169,9.621.338,3.207,1.013,3.713,1.35,6.583-.338,1.013-.675-.844-.675-.844a11.806,11.806,0,0,0,0,4.22c-.169-.338-.338,0-.506.506,0,1.182.675.844.506,2.363-.169-.338-.506-.675-.844-1.182.169,1.35.506,2.869.675,4.22-.338.338-.506-.844-.675-1.35.169,1.688.338,4.22.844,4.726l.169-1.013c0,.675-.506.338-.506-.169a1.89,1.89,0,0,1,.338-2.194l.169,1.013c1.182-1.013-.169-4.22-.169-6.245l.844.844-.675-2.194c.169-.506.675-.844.844.338.338-1.519-.338-1.35.169-2.7,0-.169.169,0,.169,0l-.169-1.519c.169.338.675-.169.506.675.506-2.7-.675-4.22,0-5.232V90.3c-.338-3.713-.675-.338-1.35-3.038l1.519-1.857-.675-.338c0-.338,0-1.182.338-1.013-.506-1.35-.338.169-.675-.506.506-1.857-.338-5.064.675-5.4-.506-.675-.338,1.688-.675-.169,1.013-.506-.169-2.194.338-3.882.506.506.338,2.025.675.506-1.013-1.013.169-3.207,0-4.726-.675,0-.338-3.038-.506-5.4.169.169.338-4.389.675-6.583h.169c-.675-.506-.675-2.7-.844-4.389.506,0,.675.338.844,1.182V53.162a6.54,6.54,0,0,1-.506-1.857l.506.338c0-2.025-.675-4.22-.338-6.752-.506-.169-1.519,2.025-1.857-.675.338-.169.844-.169.844.506,0-.169-.169-.844-.169-1.35l.506,1.182c.169-1.182-.338-.675-.338-1.519.338,0,.338-.675.675-.506a2.758,2.758,0,0,0,0,1.182,6.527,6.527,0,0,1,.675-2.869c-.169.169-.506,0-.675-.844,0-2.025.506-.675.675-1.857-.338-.506,0-1.857-.675-1.857,0-.675.338-.675.506-1.013-.338-1.013,0-4.895-.675-3.713v.169c-.675-3.545.338-7.258,0-10.8h.169a58.766,58.766,0,0,0-.506-6.076c0-.675.338-1.519.675-1.182a10.639,10.639,0,0,1,0-4.051c.338,1.519.338-.506.338,1.688a12.833,12.833,0,0,0,.169-2.363V7.927a1.276,1.276,0,0,0-.169-.675,7.311,7.311,0,0,1-.169-.844c.338.506.338,0,.506-1.013V2.525l-.338,2.363v-2.7h-1.519a10.022,10.022,0,0,1,1.35-.675,11.957,11.957,0,0,0-2.363-.169H170.2a13.118,13.118,0,0,0-2.7.338,8.643,8.643,0,0,1-5.064-.169c-1.182.506,2.363.338,1.35.844-1.857-.169-3.882-1.013-4.557-1.013-2.7-.338-2.532,1.013-5.232.675.338.169.675.844-1.35,1.182-1.857-.169-2.363-1.013-1.182-1.182.506,0,.675,0,.675.169.675-.169,1.519-.169.675-.506l-.169.169c-1.013-.169-3.545-.169-3.038-.675-1.519.169-.675.338.506.506-2.532-.338-3.882,0-6.414-.169.338.169.844.338.338.338-3.713-.338-1.688.506-4.22.506-1.519-.338.506-.844-2.025-.506-1.519-.169-.338-.675.338-.844-2.363.506-4.388-.338-5.739-.338L133.574.5a8.218,8.218,0,0,1-2.025.169l.675.506c-.675,0-1.35-.169-1.35-.338-.675.338.506.844-.844,1.181-1.013-.169-2.869.338-3.207-.338,3.038.169-.338-.675,2.194-.675H127.16c-.169,0,.169-.169.338-.169-2.869-.506-1.35.675-4.388.675.338-.338-.675-.675-1.182-.675,1.182,0,.506.675-.506.844-1.857-.338-2.025.169-3.038.169l1.182.169c-.338.338-1.35.338-2.7.506-.169-.338,1.182-.169.675-.338-1.519.675-3.376-.675-5.4-.169-1.013-.169-.169-.675-1.013-.844-2.363.506-2.532-.506-4.895-.169.675.506.844.338-.844.844l4.051-.338-2.532.675a23.9,23.9,0,0,1,3.207-.169c-1.182.338-1.182.338-.506.675-1.688-.675-3.207.506-5.232,0V1.513c-2.869-.506-5.064.675-8.777.338l1.182.169c-.506.506-2.363,0-3.545.338.169-.338-.675-.506-1.182-.844,0,.338-2.7,0-3.038.844L87.326,1.85c-3.038-.169-3.376,1.182-6.414,1.013.844-.506-.506-.675,1.519-1.013-1.013,0-1.857,0-1.857.169-.506-.169-2.7.506-3.545.169a1.788,1.788,0,0,1-1.688.506c-.169,0,0-.169,0-.169,0,.169-1.688.338-.675.675C71.629,2.019,66.4,3.369,63.7,2.188c-2.194.169-4.726.338-6.583.338.169-.169,0-.169.338-.169-2.7-.338-1.688,1.182-4.726.675-1.519-.675,1.519-.338.675-.675-.338-1.35-3.713.169-5.739-.675h.506c-1.519-.506-3.713.506-6.245.338,0,0,.169-.169,0-.169-1.688.675-5.064.844-7.427,1.013.675-.506,1.182-.338.675-.844-1.013,0,.338.844-1.857,1.013-.675-.338-2.363-.506-2.532-1.013h2.025c-1.013-.675-2.7,0-3.713-.169l.169-.338c-3.207.169-3.207.844-6.583.844l.338.169c-1.857.844-1.519-.506-3.376.169l-.506-.844c-1.182.169-4.22.844-6.414,1.013,1.182-.675,3.882-.844,5.4-1.181-1.182,0-4.051,0-4.726.506.506,0,1.182-.338,1.519-.169A14.3,14.3,0,0,1,9.008,3.032c.169-.506-.506-.675-1.519-.844H2.257a11.275,11.275,0,0,1-.675,4.557V9.952a20.427,20.427,0,0,1-.169,3.207c-.169,2.194-.338,4.557-.338,6.92,1.182-1.688,0,1.519,1.35,1.182v1.688L1.75,26.493c-.338.844-.338-1.182-.506-1.013-.169,2.532-.506,1.013-.844,2.7.506-.338.675.844.506,2.363l.506-2.025C2.088,32.063.4,31.557,1.075,35.1L.738,33.92c.169,1.857,0,6.752,1.013,8.608-.169.338-.506.675-.506,0-.169,4.389,1.013,9.79.506,13.166l-.338-.338a5.364,5.364,0,0,1,.338,2.363c-.169,0-.338-.338-.338,0a8.886,8.886,0,0,1,.338,3.207l-.338-.844c-.338,4.22.844,6.583,1.013,10.127-.844,0-1.182,3.376-1.35,5.064H.906c-.169,4.895.675,8.439,1.013,13C.906,91.14,1.582,97.891.906,102.617c.169-.675.675.169.844,1.013-.169,1.013.675,3.038-.169,2.869v-.338c-.844.844-.675,3.038-.675,4.726l1.013.338a3.18,3.18,0,0,0-.338,1.35,1.015,1.015,0,0,1-.169.675v.844c0,1.688-.169,3.376,0,5.064,1.519,0,3.038-.169,4.388-.169a15.443,15.443,0,0,0,2.869-.169c1.519,0,2.869,0,3.545.506a22.394,22.394,0,0,1,3.545-.506v.506a67.356,67.356,0,0,0,8.271,0l-.844.338c2.194,0,2.7-1.688,4.557-1.688l.506.844c3.713,0,7.427.675,10.971,0,0,.169-.169.338-.844.338,1.688,0,6.752.506,6.076-.675,0,.844,3.882,0,5.739-.338l-.338.506a11.553,11.553,0,0,1,4.051-1.182c.506,0,.506.506-.169.338,1.857.338,1.519-.506,3.713-.169l-.844.338a6.228,6.228,0,0,0,2.869-.506c1.182-.169,3.545.169,3.882.675a3.094,3.094,0,0,1,2.363-.506c.169.169-.338.338-.506.338,3.207.338,4.726-.675,6.92-.169a.363.363,0,0,0,.338.338c-2.532,0-4.557,0-4.389-.169,0,.506,2.025.675.338,1.35,1.688-.338,4.389-1.182,6.414-1.013.169,0,.169.169.338.169H75a2.5,2.5,0,0,0,1.182-.169,5.742,5.742,0,0,0,1.688.169c.169.506,2.363.169,3.376.338,0-.506,1.182-.506,0-1.013.169,0-.169,0-.844.169H77.368a3.691,3.691,0,0,1,2.7-.169c.506-.338,1.182-.675,1.35-.844,1.35.844,4.051,1.182,4.388,1.688,3.038-.338,7.258-.169,9.283-1.35.844-.169,1.013.338,1.35.506a4.75,4.75,0,0,1-1.35.169c1.688-.338,5.232-.169,5.739-.844,2.194.338-1.182.675,1.857.506l-.338.169c6.076,1.182,9.79-1.857,16.541-.338-.506-.169-.675-.169-.844-.338,7.6.675,15.7-.675,23.293.506,2.194.169,2.363-.338,3.713-.675l.506.675,2.194-.675c3.207-.506,5.4,1.519,9.452.506l-.506-.338c1.519,0,4.557-.169,4.389.169.169,0,.506-.506,1.013-.169v.338l3.545-.506c2.7.169-.506,1.35,3.545,1.35,1.519-.169,4.22-1.013,3.713-1.182-.675,0-1.519-.169-1.519-.506l1.35-.169c.169-1.013,1.35-1.857-2.025-2.532l-2.363.506-.675-.506H169.7a3.115,3.115,0,0,0-2.532.169,2.748,2.748,0,0,0-1.013-.506l-2.363.844c-.338-.338,1.013-.675-.506-1.013-1.013.338,1.013.844-.675,1.182-1.182-.506-.844-.844-2.025-.338-.169-.169.169-.338.675-.506-1.182.338-3.038.169-3.713.675-1.182-.506-3.882.169-3.882-.844a10.2,10.2,0,0,1-3.038.675c2.025-1.013-4.051,0-3.545-1.182-1.519,1.013-5.232.506-7.764,1.013.169,0,.506-.169.675-.169a8.468,8.468,0,0,1-2.7-.506c-.169.844-2.363,1.013-3.713,1.519-1.688-.844,1.013-1.013.506-1.688.169.675-3.038.675-2.532,1.182-1.35-.506-1.182-.169-1.857-.844-.169,1.013-1.182.169-2.363.844-2.025-.506-.506-1.013-2.7-.675C122.941,114.095,124.966,113.757,124.966,113.757Zm-50.974,1.688h0Zm-4.388,0H71.46c.169.169,0,.338-.506.338C71.291,115.783,70.278,115.614,69.6,115.445Zm9.115,4.051c-.675,0-.844,0-1.013-.169h1.182Z" transform="translate(-0.062 -0.5)" fill="#244d4d"/>
  <path id="Path_145" data-name="Path 145" d="M47.569,70.569h.338a.589.589,0,0,1-.338-.169l-.169.169Z" transform="translate(32.268 47.583)" fill="#244d4d"/>
  <path id="Path_146" data-name="Path 146" d="M6.4,68v.169L6.738,68Z" transform="translate(4.065 45.932)" fill="#244d4d"/>
  <path id="Path_147" data-name="Path 147" d="M101.769,33a.589.589,0,0,0-.169.338A.523.523,0,0,1,101.769,33Z" transform="translate(69.552 21.856)" fill="#244d4d"/>
  <path id="Path_148" data-name="Path 148" d="M101.669,39.1l-.169,1.519C101.5,39.944,101.669,39.438,101.669,39.1Z" transform="translate(69.483 26.052)" fill="#244d4d"/>
  <path id="Path_149" data-name="Path 149" d="M101.4,43.7l.169.169Z" transform="translate(69.414 29.217)" fill="#244d4d"/>
  <path id="Path_150" data-name="Path 150" d="M92.282,3c-.338.169-.844.169-1.182.338C91.606,3.169,92.113,3.338,92.282,3Z" transform="translate(62.329 1.22)" fill="#244d4d"/>
  <path id="Path_151" data-name="Path 151" d="M90,3.1a2.861,2.861,0,0,0,1.688,0Z" transform="translate(61.572 1.289)" fill="#244d4d"/>
  <path id="Path_152" data-name="Path 152" d="M101.3,63.8v.338h.169Z" transform="translate(69.345 43.043)" fill="#244d4d"/>
  <path id="Path_153" data-name="Path 153" d="M101.469,65.144,101.3,64.3A1.265,1.265,0,0,0,101.469,65.144Z" transform="translate(69.345 43.387)" fill="#244d4d"/>
  <path id="Path_154" data-name="Path 154" d="M101.469,57.769,101.3,57.6A.165.165,0,0,0,101.469,57.769Z" transform="translate(69.345 38.778)" fill="#244d4d"/>
  <path id="Path_155" data-name="Path 155" d="M101.552,55.8a13.385,13.385,0,0,0-.338,2.869l.169.169C101.045,58.332,101.889,56.475,101.552,55.8Z" transform="translate(69.263 37.54)" fill="#244d4d"/>
  <path id="Path_156" data-name="Path 156" d="M102.969,48l-.169,2.7c.169-.506.506-1.013.506.169C103.982,47.494,102.8,51.545,102.969,48Z" transform="translate(70.377 32.175)" fill="#244d4d"/>
  <path id="Path_157" data-name="Path 157" d="M103.1,43.512c.169,1.35.338,0,.506,0C103.269,42.668,103.269,42.33,103.1,43.512Z" transform="translate(70.584 28.561)" fill="#244d4d"/>
  <path id="Path_158" data-name="Path 158" d="M103.1,8.217l.506.169C103.606,7.373,103.438,8.386,103.1,8.217Z" transform="translate(70.584 4.611)" fill="#244d4d"/>
  <path id="Path_159" data-name="Path 159" d="M100.9,3.369c.169.169.338.169.338.338.169-.169.506-.338.675-.506Z" transform="translate(69.07 1.357)" fill="#244d4d"/>
  <path id="Path_160" data-name="Path 160" d="M97.85,1.169,98.357,1,96.5,1.169Z" transform="translate(66.043 -0.156)" fill="#244d4d"/>
  <path id="Path_161" data-name="Path 161" d="M38.5,1.211l.338.675C39.513,1.717,39.682,1.042,38.5,1.211Z" transform="translate(26.146 -0.029)" fill="#244d4d"/>
  <path id="Path_162" data-name="Path 162" d="M13.963,1.744A2.854,2.854,0,0,0,11.6,1.575C12.613,1.575,13.625,1.744,13.963,1.744Z" transform="translate(7.642 0.113)" fill="#244d4d"/>
  <path id="Path_163" data-name="Path 163" d="M.369,67.744.2,66.9l.169.844a.316.316,0,0,0,0,.506v-.506Z" transform="translate(-0.2 45.176)" fill="#244d4d"/>
</svg>
