<svg id="brand-4" xmlns="http://www.w3.org/2000/svg" width="125.16" height="122.941" viewBox="0 0 125.16 122.941">
  <path id="Path_175" data-name="Path 175" d="M71.178,82.794c-.154,0,.154-.147.461-.294C71.024,82.647,70.716,82.794,71.178,82.794Z" transform="translate(37.689 38.822)" fill="#244d4d"/>
  <path id="Path_176" data-name="Path 176" d="M71.4,82.547c.154,0,.307-.147.615-.147A1.2,1.2,0,0,1,71.4,82.547Z" transform="translate(37.928 38.775)" fill="#244d4d"/>
  <path id="Path_177" data-name="Path 177" d="M71.5,81.847c.154,0,.154,0,.307-.147h-.154Z" transform="translate(37.981 38.445)" fill="#244d4d"/>
  <path id="Path_178" data-name="Path 178" d="M124.82,14.54v-2.5a20.818,20.818,0,0,0-.154-3.091,13.493,13.493,0,0,0-.615-2.649,7.384,7.384,0,0,0-1.383-2.355A10.754,10.754,0,0,0,118.21.706a12.9,12.9,0,0,0-5.38-.589c-.922.147-1.845.147-2.613.294a2.027,2.027,0,0,0-.922.147,1.438,1.438,0,0,0-.769.147c-.922.147-1.845.147-2.767.294A30.645,30.645,0,0,1,99.3.706c-9.53.883-21.673,1.472-32.433,2.5h.461c-5.687.442-9.991.147-15.679.589,0,.147-.769.294-1.23.294-1.076-.736-32.741,3.826-34.739,3.532-.769.147-1.845.147-2.613.294a9.924,9.924,0,0,0-6.61,2.8,9.168,9.168,0,0,0-2,2.943A9.747,9.747,0,0,0,3.7,17.189l-.154,1.177c0,.442,0,.883-.154,1.03l-.154,1.472c-.154,1.03-.154,2.06-.307,2.943-.154,2.06-.461,3.974-.615,5.887C2,33.525,1.7,37.351,1.7,40.736,2,42.8,2.312,45.3,2.773,47.065c-.461,1.766.307,2.06.154,4.121-1.845,5.151-1.23,8.242-.615,5.592.154,4.268-.154,8.683-.154,12.51.154,1.766.154,3.532.307,5.3a4.488,4.488,0,0,1-.615,3.091c.154,3.974-.307,2.8-.461,6.77-.615,1.03.769,10.3.461,11.479V95.19a39.358,39.358,0,0,1-.922,6.328c-.154,1.03-.307,1.913-.461,2.943,0,.442-.154,1.03-.154,1.619v2.5A18.508,18.508,0,0,0,.467,112.7a7.182,7.182,0,0,0,1.383,3.532A10,10,0,0,0,8.46,120.5a21.941,21.941,0,0,0,4.458.294h8.608c6.917,0,13.68-.147,19.983,0,.154-.589-2.767.147-2.921-.736,7.378.147,14.756.883,22.134,1.03a14.189,14.189,0,0,1,3.535.736c2.306.294,1.383-.294,3.074-.147l.307.589c2.459-.442,3.689.589,6.148.442.154-.294.922-.294,1.845-.294,0,.589,2.613,0,2.459.442a6.013,6.013,0,0,1,1.537.147c.922-.147,9.991-1.913,11.067-2.06l.461.147c1.383,0,2-.442,1.076-.589h3.228c.307,0,.615.294.154.589a9.751,9.751,0,0,1,2.921-.147c-2.613-.442-5.841-.883-8.608-1.472,1.076-.147,3.228.147,4.458,0a59.383,59.383,0,0,0,6.763,1.03c.461,0,.922-.736,2-.442.615.442,1.383,0,2.306.294a12.743,12.743,0,0,1-3.382.147c.154.589,2.767.294,3.689.589.461-.147,2.613,0,4-.147-.461.294.154.442.922.442.154,0,.307,0,.307-.147-.154,0-.307,0-.307.147a2.723,2.723,0,0,1,1.076.147c.922,0,1.537-.147,1.076-.294,0-.147-.154-.147-.307-.294,2.152-.442,4.765-1.03,4.15-1.03-.307,0-.307-.147-.307-.294a.146.146,0,0,0,.154-.147c.154-.147.154-.294-.154-.294l-.307.147c-4-.147,3.535-3.091-1.076-3.238,2,.736-.615.736-2.767.736-.154-.294-1.23-.589-2.613-.736-1.383,0-.769.294-1.076.442-.769-.147-2.152-.294-2-.589-1.076.442-1.691-.294-2.921-.147-1.076.147,0,.147-.769.442-1.691,0-4-.147-5.226-.147a3.69,3.69,0,0,1-1.23-.883h1.076c-.154.147,0,.294.922.147a.146.146,0,0,1-.154-.147h18.6l.615-23.695c.307,2.943.769,5.592,1.383,6.623,0,5.887.615,8.389.769,14.128.769-1.472.615,5.74,1.23,2.8,1.076-3.826.307-4.121,1.076-7.359l-.154.147c1.383-15.306,2.306-30.612,3.074-46.212-.307-10.449.461-21.634.615-32.378C124.974,24.4,124.974,19.4,124.82,14.54ZM113.753,118.59q.692,0,0,.442Q113.292,118.811,113.753,118.59Zm-3.228,1.472c-.154,0-.307.147-.461.147a18.481,18.481,0,0,0,3.074.147c0-.147-.307-.294-.307-.294a2.371,2.371,0,0,1,1.076-.147h.769c.307,0,.615-.147.922-.147a.956.956,0,0,1,.615.147c-.154.147-.615,0-.922,0,.769,0-1.076.442-2.921,1.03-.769-.147-2.306-.147-2.306-.442-.154,0-.154,0-.307.147l-.615-.147C109.3,120.209,109.91,120.061,110.525,120.061Z" transform="translate(-0.275 -0.064)" fill="#244d4d"/>
  <path id="Path_179" data-name="Path 179" d="M25.44,28.8h.154c11.221,24.578,11.99,26.049,11.99,26.049,1.537,3.385,3.074,3.385,4,3.532v.294H26.055v-.294c3.535,0,.922-5,.922-5l-1.383-2.943H16.832c-.922,1.913-.154,7.947,5.226,7.947v.294H9.3v-.294c1.383-.147,3.689-.442,7.071-7.947ZM20.982,40.427l-4,9.566h8.3Z" transform="translate(4.572 13.491)" fill="#fff"/>
  <path id="Path_180" data-name="Path 180" d="M41.782,58.8v.294H30.715V58.8c1.691-.442,1.691-2.208,1.691-4.415V32.309c0-1.472-.461-2.06-2.306-2.649v-.294L39.938,27.6V54.532C39.938,56.74,40.245,58.506,41.782,58.8Z" transform="translate(15.745 12.925)" fill="#fff"/>
  <path id="Path_181" data-name="Path 181" d="M49.782,58v.294H38.715V58c1.691-.442,1.691-2.355,1.691-4.415v-10.3c0-1.472-.461-2.06-2.306-2.649v-.294l9.838-1.766V53.73C47.938,55.938,48.245,57.7,49.782,58Zm-10.3-24.725a4.048,4.048,0,0,1,4.15-3.974,4.186,4.186,0,0,1,4.3,3.974,4.089,4.089,0,0,1-4.3,3.974A4.048,4.048,0,0,1,39.483,33.274Z" transform="translate(20.042 13.727)" fill="#fff"/>
  <path id="Path_182" data-name="Path 182" d="M61.414,53.6s-1.691,2.355-6.763,2.355c-5.38,0-7.839-1.472-7.839-1.472V48.893h.461c.922,3.974,4.611,6.623,7.532,6.623,3.074,0,3.843-3.532.461-5.592l-4.458-2.649c-4.15-2.649-5.226-6.77-2.613-9.713,0,0,1.691-2.06,6.763-2.06s7.224,1.177,7.224,1.177v4.268h-.461c-.769-3.826-4.3-5.151-6.763-5.151-2.921,0-4.3,2.8-.461,5.151l4.458,2.649C62.8,45.949,63.874,50.806,61.414,53.6Z" transform="translate(24.703 16.652)" fill="#fff"/>
  <path id="Path_183" data-name="Path 183" d="M80.9,52.674c-.615,1.913-2.921,3.091-5.687,3.091,0,0-4.919,0-5.38-3.826-.615,2.208-2.767,3.826-5.995,3.826-1.691,0-5.534-.736-5.534-4.268,0-4.268,3.535-5,11.528-6.77V42.078c0-4.415-2.613-6.77-5.687-5.3,0,0-.922.589.461,1.03a2.722,2.722,0,0,1,1.537,1.619A3.109,3.109,0,0,1,64.448,43.4a3.421,3.421,0,0,1-4.15-1.619,3.144,3.144,0,0,1,.461-3.091,10.39,10.39,0,0,1,2.921-2.208,8.8,8.8,0,0,1,4.15-.883c5.841,0,9.069,3.532,9.069,8.536v6.328s0,3.091,2.152,2.943c0,0,1.076,0,1.383-.736ZM69.828,45.021c-3.689.736-3.535,3.385-3.535,5.3,0,0,0,2.8,1.691,2.8.769,0,1.383-.589,1.845-1.619Z" transform="translate(30.891 16.696)" fill="#fff"/>
  <path id="Path_184" data-name="Path 184" d="M19.7,53.5h2.459a1.931,1.931,0,0,1,1.383.442A1.31,1.31,0,0,1,24,54.972a1.137,1.137,0,0,1-1.076,1.177,1.352,1.352,0,0,1,.922.442,2.032,2.032,0,0,1,.307.883A1.31,1.31,0,0,1,23.7,58.5a1.931,1.931,0,0,1-1.383.442H19.7V53.5Zm1.383.883V55.56h.922a.581.581,0,0,0,.461-.147.711.711,0,0,0,0-.883.581.581,0,0,0-.461-.147Zm0,3.385h1.076a.581.581,0,0,0,.461-.147.711.711,0,0,0,0-.883.581.581,0,0,0-.461-.147H21.083Z" transform="translate(10.159 25.142)" fill="#fff"/>
  <path id="Path_185" data-name="Path 185" d="M26.069,58.062a2.21,2.21,0,0,1-.769-1.913,2.733,2.733,0,0,1,.769-1.913,3.321,3.321,0,0,1,2-.736,3,3,0,0,1,2,.736,2.21,2.21,0,0,1,.769,1.913,2.733,2.733,0,0,1-.769,1.913,3.081,3.081,0,0,1-4,0Zm3.074-.883A1.417,1.417,0,0,0,29.6,56a1.631,1.631,0,0,0-.461-1.177A1.539,1.539,0,0,0,26.53,56a1.631,1.631,0,0,0,.461,1.177,1.425,1.425,0,0,0,1.076.442A1.219,1.219,0,0,0,29.143,57.179Z" transform="translate(13.166 25.142)" fill="#fff"/>
  <path id="Path_186" data-name="Path 186" d="M31.9,56.638V53.4h1.383v3.238a1.1,1.1,0,0,0,.307.736,1.151,1.151,0,0,0,1.537,0,1.1,1.1,0,0,0,.307-.736V53.4h1.383v3.238a2.679,2.679,0,0,1-.307,1.177,1.558,1.558,0,0,1-.922.736,2.947,2.947,0,0,1-1.076.294,2.373,2.373,0,0,1-1.691-.589A1.572,1.572,0,0,1,31.9,56.638Z" transform="translate(16.711 25.095)" fill="#fff"/>
  <path id="Path_187" data-name="Path 187" d="M37.8,54.43V53.4h4.3v1.03H40.567V58.7H39.183V54.43Z" transform="translate(19.88 25.095)" fill="#fff"/>
  <path id="Path_188" data-name="Path 188" d="M43.5,58.8V53.5h1.383v5.3Z" transform="translate(22.942 25.142)" fill="#fff"/>
  <path id="Path_189" data-name="Path 189" d="M50.067,58.8a3,3,0,0,1-2-.736,2.21,2.21,0,0,1-.769-1.913,2.733,2.733,0,0,1,.769-1.913,3.321,3.321,0,0,1,2-.736,3,3,0,0,1,2,.736,2.21,2.21,0,0,1,.769,1.913,2.679,2.679,0,0,1-.307,1.177,1.527,1.527,0,0,1-.769.883l1.076,1.325H51.45l-.615-.883A1.438,1.438,0,0,1,50.067,58.8Zm-1.076-3.826a1.417,1.417,0,0,0-.461,1.177,1.631,1.631,0,0,0,.461,1.177A1.539,1.539,0,0,0,51.6,56.149a1.631,1.631,0,0,0-.461-1.177,1.532,1.532,0,0,0-2.152,0Z" transform="translate(24.983 25.142)" fill="#fff"/>
  <path id="Path_190" data-name="Path 190" d="M53.9,56.638V53.4h1.383v3.238a1.1,1.1,0,0,0,.307.736,1.151,1.151,0,0,0,1.537,0,1.1,1.1,0,0,0,.307-.736V53.4h1.383v3.238a2.679,2.679,0,0,1-.307,1.177,1.558,1.558,0,0,1-.922.736,2.947,2.947,0,0,1-1.076.294,2.373,2.373,0,0,1-1.691-.589A1.572,1.572,0,0,1,53.9,56.638Z" transform="translate(28.528 25.095)" fill="#fff"/>
  <path id="Path_191" data-name="Path 191" d="M63.382,53.4v1.03h-2v1.177h1.845v1.03H61.383v1.177h2v1.03H60v-5.3h3.382Z" transform="translate(31.804 25.095)" fill="#fff"/>
</svg>
