<svg xmlns="http://www.w3.org/2000/svg" width="155.966" height="104.943" viewBox="0 0 155.966 104.943">
  <g id="brand-6" transform="translate(-1329 -9)">
    <g id="Group_109" data-name="Group 109" transform="translate(1320.872 9)">
      <path id="Path_203" data-name="Path 203" d="M87.917,26.353a17.694,17.694,0,0,0-1.462-7.494,21.041,21.041,0,0,0-3.839-6.215,4.352,4.352,0,0,0-1.1-3.839A20.071,20.071,0,0,0,75.3,3.321a10.922,10.922,0,0,0-7.129-1.462A5.665,5.665,0,0,0,65.8.762a3.738,3.738,0,0,0-2.011,0l-2.193.548c-.548.183-1.1.183-1.462.366H56.294a6.218,6.218,0,0,0-1.828.183l-2.193.548h.183a1.648,1.648,0,0,0-.914.183,13.11,13.11,0,0,0-4.57,1.28c-3.29,1.645-6.763,3.656-8.226,6.032-.914,1.645-1.828,2.925-2.559,4.2L36,14.289l-.548.548c-.183.183-.366.548-.548.731a2.523,2.523,0,0,1,.548-.731l.183.183a3.088,3.088,0,0,0-.366.914c-1.28,1.645-2.193,4.021-2.925,4.57.548,1.1.914-.548,1.28-2.011-.183.731-.366,1.462-.548,2.376a12.343,12.343,0,0,0-.366,2.559v.183c0-.731-.183-1.28.366-2.011-.183-.366-.366-.366-.731.183-.183,1.645-.731,4.57-.183,4.753-.183.366-.183.548-.366.914l.548.731c0,.183,0,.183-.183.366,0-.183.183-.183.183-.366a13.642,13.642,0,0,0,1.462,5.667.672.672,0,0,0,.548.183c-.183.548-.366-.183-.731-.366.366,1.462.914,2.376,1.462,2.559a9.641,9.641,0,0,1-.548-2.194h.548c.548.548,1.1,1.1,1.1,1.28l.548,2.742c.183.731.183,1.28.366,2.011h-.183c-.366-.914-1.1-2.193-1.28-2.559,0,.548.183,1.28.183,1.828l.548.366a.343.343,0,0,1,0,.548l-.183.183v.183h.183l.548.548H37.1a4.043,4.043,0,0,0,1.1,3.107,16.688,16.688,0,0,0,1.462,2.376,3.5,3.5,0,0,0,1.462.731l.183.183a3.216,3.216,0,0,0,1.1.183h.548c0-.731-.731-1.645-1.462-2.742l.183.183V45h-.183a10.277,10.277,0,0,1-1.28-2.376,4.539,4.539,0,0,1,.183-1.645c0-.914,1.28,0,1.645.183a8.6,8.6,0,0,0-.731-2.925,13.743,13.743,0,0,0,2.742,2.925l-.366.366c.914.731.731,1.28,1.828,2.011,0-.731-.366-1.1-.914-1.645a19.151,19.151,0,0,0,10.054,4.2l5.667.731a13.835,13.835,0,0,0,2.742.183,9.556,9.556,0,0,1-2.925,1.1,7.417,7.417,0,0,0,.914,3.107c.731.914,2.011,1.828,4.753,1.828a10.7,10.7,0,0,0,2.376-.366,29.672,29.672,0,0,0,3.839-.183c.366-.183.548-.548.914-.731.366-.366.731-.548,1.1-.914.731-.548,1.645-1.28,2.376-1.828.366-.183.548-.548.914-.731.183,0,.366-.183.548-.183.366-.366.731-.914,1.28-1.462a9.154,9.154,0,0,0,1.28-1.462,20.565,20.565,0,0,0,6.032-8.408,11.823,11.823,0,0,0,.731-2.376c.183-.731.366-1.645.548-2.559a11.241,11.241,0,0,0,.183-2.559ZM36.187,40.062l.183.183C36.37,40.428,36.37,40.245,36.187,40.062Z" transform="translate(26.328 -0.625)" fill="#244d4d"/>
      <path id="Path_204" data-name="Path 204" d="M47.245,29.8c-.366,0-1.1-.183-.914-.548l-.731.366,2.011.366c-.366-.366-.914-.731-.914-1.1l-.914-.183C46.7,28.883,46.88,29.431,47.245,29.8Z" transform="translate(37.753 22.619)" fill="#244d4d"/>
      <path id="Path_205" data-name="Path 205" d="M47.193,29.131c.366-.366-.183-.548-.914-.731-.731.183,1.1,0,.548.548A.638.638,0,0,1,47.193,29.131Z" transform="translate(38.17 22.37)" fill="#244d4d"/>
      <path id="Path_206" data-name="Path 206" d="M43.9,28.6c0,.183.183.183.366.366A.393.393,0,0,0,43.9,28.6Z" transform="translate(36.345 22.536)" fill="#244d4d"/>
      <path id="Path_207" data-name="Path 207" d="M43.5,27.9c.548.366.731.548.548.914l-.366-.183c-.183.183.183.366.548.548C44.048,28.631,45.145,28.448,43.5,27.9Z" transform="translate(36.014 21.956)" fill="#244d4d"/>
      <path id="Path_208" data-name="Path 208" d="M45.166,27.6H44.8l2.011,1.1C46.811,27.966,45.9,28.331,45.166,27.6Z" transform="translate(37.091 21.708)" fill="#244d4d"/>
      <path id="Path_209" data-name="Path 209" d="M32.783,21.366c0-.183,0-.366-.183-.366C32.783,21,32.783,21.183,32.783,21.366Z" transform="translate(26.99 16.244)" fill="#244d4d"/>
      <path id="Path_210" data-name="Path 210" d="M32.4,19.8c0,.548.183,1.28.183,1.828l.366.366C32.583,20.9,33.131,21.08,32.4,19.8Z" transform="translate(26.824 15.25)" fill="#244d4d"/>
      <path id="Path_211" data-name="Path 211" d="M32.8,21.183a3.483,3.483,0,0,1,.914,1.828,4.7,4.7,0,0,0,1.28,2.193A30.45,30.45,0,0,0,32.983,21Z" transform="translate(27.156 16.244)" fill="#244d4d"/>
    </g>
    <g id="Group_136" data-name="Group 136" transform="translate(1328.6 78.188)">
      <path id="Path_230" data-name="Path 230" d="M8.831,21.652V35.176H.4V.4H14.1c4.04,0,7.2,1.054,9.309,3.162a9.758,9.758,0,0,1,3.337,7.552,11.152,11.152,0,0,1-1.756,5.972,9.422,9.422,0,0,1-5.972,4.04l8.431,14.227H17.612L9.884,21.828H8.831Zm0-14.754v8.431H14.1a4.131,4.131,0,0,0,2.986-1.054,4.131,4.131,0,0,0,1.054-2.986A4.131,4.131,0,0,0,17.086,8.3,3.618,3.618,0,0,0,14.1,7.074H8.831Z" transform="translate(0 0.227)" fill="#6a7474"/>
      <path id="Path_231" data-name="Path 231" d="M39.977.4V6.9H27.331v7.552H38.4v6.5H27.331v8.079H39.977v6.5H18.9V.751H39.977Z" transform="translate(13.993 0.227)" fill="#6a7474"/>
      <path id="Path_232" data-name="Path 232" d="M33.4,6.9V.4H60.8V6.9H51.315V35.176H42.884V6.9Z" transform="translate(24.96 0.227)" fill="#6a7474"/>
      <path id="Path_233" data-name="Path 233" d="M60.031,21.652V35.176H51.6V.4H65.3c4.04,0,7.2,1.054,9.309,3.162a9.758,9.758,0,0,1,3.337,7.552,11.152,11.152,0,0,1-1.756,5.972,9.422,9.422,0,0,1-5.972,4.04l8.431,14.227H68.812L61.084,21.828H60.031Zm0-14.754v8.431H65.3a4.131,4.131,0,0,0,2.986-1.054,4.131,4.131,0,0,0,1.054-2.986A4.131,4.131,0,0,0,68.286,8.3,3.618,3.618,0,0,0,65.3,7.074H60.031Z" transform="translate(38.726 0.227)" fill="#6a7474"/>
      <path id="Path_234" data-name="Path 234" d="M74.093,30.661C70.581,27.324,69,23.109,69,17.839A16.932,16.932,0,0,1,74.093,5.193a18.245,18.245,0,0,1,25.292,0,17.211,17.211,0,0,1,5.093,12.646,17.906,17.906,0,0,1-5.093,12.822,17.5,17.5,0,0,1-12.646,5.093A17.211,17.211,0,0,1,74.093,30.661Zm19.32-5.445a10.51,10.51,0,0,0,2.459-7.2,10.51,10.51,0,0,0-2.459-7.2,8.6,8.6,0,0,0-6.674-2.635,8.6,8.6,0,0,0-6.674,2.635,10.51,10.51,0,0,0-2.459,7.2,10.51,10.51,0,0,0,2.459,7.2,8.6,8.6,0,0,0,6.674,2.635A9.138,9.138,0,0,0,93.414,25.216Z" transform="translate(51.887)" fill="#6a7474"/>
    </g>
  </g>
</svg>
