<svg id="brand-1" xmlns="http://www.w3.org/2000/svg" width="275.776" height="69.07" viewBox="0 0 275.776 69.07">
  <path id="Path_92" data-name="Path 92" d="M275.791,47.784c-10.166-.348-20.151.348-27.776-2.086-2.542-.174,2.723-4.172.182-6.431-2.542-.174-7.625-.348-10.166-.348-2.36-3.3,2.723-6.431.363-9.734s-12.526-1.564-15.068-3.824c-7.443-2.433,5.083-2.955,12.708-2.781-2.542-2.26,5.083.174,5.083-1.912.182-4.345.363-8.517-9.8-12.167-2.542-1.217.182-4.345.182-6.431C201.178,1.028,168.32-.189,138,3.114c-25.416,2.26-55.733-3.3-80.785-.7-7.625.869-20.151-4-25.234,1.217,2.542.174,5.083.174,7.624.348-7.625,2.955-15.068-.521-22.692.348,0,2.086-.182,3.3-2.723,4.172,5.083.174,12.708-.7,17.609.7l-.182,3.3c-5.083.869-12.526-1.564-17.609-.7,0,1.043-.182,3.3-.182,4.345s-2.542,1.043-5.083.869c2.542.174,7.625.348,10.166.348,0,1.043-.182,3.3-.182,4.345s-2.542,1.043-5.083.869c0,2.086-2.723,4.172-.181,5.388,2.542.174,5.083.174,7.625.348-10.166.7-15.431,5.91-15.431,9.212,2.542-1.043,2.542,2.26,5.083,1.217C3.119,41.7-4.688,45.7,5.479,47.089c88.228,6.257,179.18,5.214,267.59,6.084C278.333,52.129,275.791,49.87,275.791,47.784Z" transform="translate(-0.628 -0.962)" fill="#244d4d"/>
  <path id="Path_93" data-name="Path 93" d="M19.828,23.184V31.7H14.2V9.8h9.077a9.253,9.253,0,0,1,6.172,1.912A6.361,6.361,0,0,1,31.628,16.4a5.951,5.951,0,0,1-1.271,3.65,6.618,6.618,0,0,1-3.994,2.607l5.628,8.865H25.455L20.372,23.01h-.545Zm0-9.386v5.214h3.449a2.542,2.542,0,0,0,2-.7A2.318,2.318,0,0,0,26,16.4,2.46,2.46,0,0,0,23.277,13.8Z" transform="translate(10.438 5.562)" fill="#fff"/>
  <path id="Path_94" data-name="Path 94" d="M45,9.7v4H36.828v4.693h7.262v4H36.828V27.6H45v4H31.2V9.7Z" transform="translate(24.3 5.488)" fill="#fff"/>
  <path id="Path_95" data-name="Path 95" d="M46.4,31.527V9.8H61.286v4H52.028v4.693h6.9v4h-6.9v9.038Z" transform="translate(36.694 5.562)" fill="#fff"/>
  <path id="Path_96" data-name="Path 96" d="M67.228,23.184V31.7H61.6V9.8h9.077a9.253,9.253,0,0,1,6.172,1.912A6.361,6.361,0,0,1,79.028,16.4a5.951,5.951,0,0,1-1.271,3.65,6.618,6.618,0,0,1-3.994,2.607l5.628,8.865H72.855L67.772,23.01h-.545Zm0-9.386v5.214h3.449a2.542,2.542,0,0,0,2-.7A2.318,2.318,0,0,0,73.4,16.4,2.46,2.46,0,0,0,70.677,13.8Z" transform="translate(49.088 5.562)" fill="#fff"/>
  <path id="Path_97" data-name="Path 97" d="M92.4,9.7v4H84.228v4.693h7.262v4H84.228V27.6H92.4v4H78.6V9.7Z" transform="translate(62.95 5.488)" fill="#fff"/>
  <path id="Path_98" data-name="Path 98" d="M101.751,13.772a2.281,2.281,0,0,0-1.634.521,2.164,2.164,0,0,0-.726,1.564,2.07,2.07,0,0,0,.545,1.564,3.553,3.553,0,0,0,1.634.869,10.554,10.554,0,0,1,2.178.7c.726.174,1.634.521,2.36.7l2.178,1.043a3.868,3.868,0,0,1,1.634,1.738,6.374,6.374,0,0,1,.545,2.781,5.522,5.522,0,0,1-2.36,4.693,8.993,8.993,0,0,1-6.172,1.912A9.56,9.56,0,0,1,95.76,30.11a5.728,5.728,0,0,1-2.36-5.041h5.991a2.519,2.519,0,0,0,2.723,2.607,2.793,2.793,0,0,0,1.815-.521,1.667,1.667,0,0,0,.726-1.564,2.07,2.07,0,0,0-.545-1.564,3.553,3.553,0,0,0-1.634-.869c-.726-.174-1.452-.521-2.178-.7s-1.634-.521-2.36-.7L95.76,20.724a3.868,3.868,0,0,1-1.634-1.738,6.118,6.118,0,0,1-.545-2.607,5.619,5.619,0,0,1,2.36-4.867A9.8,9.8,0,0,1,101.932,9.6a10.5,10.5,0,0,1,5.991,1.564,5.961,5.961,0,0,1,2.36,5.041h-5.991a2.27,2.27,0,0,0-.726-1.738A2.386,2.386,0,0,0,101.751,13.772Z" transform="translate(75.018 5.414)" fill="#fff"/>
  <path id="Path_99" data-name="Path 99" d="M124.642,9.8h5.628V31.7h-5.628V22.662h-8.714V31.7H110.3V9.8h5.628v8.691h8.714Z" transform="translate(88.798 5.562)" fill="#fff"/>
  <g id="Group_111" data-name="Group 111" transform="translate(59.131 60.205)">
    <path id="Path_100" data-name="Path 100" d="M43.548,35.6v8.691H41.369V39.424l-2.178,4.867H37.557l-2.178-4.867v4.867H33.2V35.6h2.542l2.542,5.91,2.542-5.91Z" transform="translate(-33.2 -35.6)" fill="#6a7474"/>
    <path id="Path_101" data-name="Path 101" d="M50.317,44.291,49.772,42.9H46.5l-.545,1.391H43.6L46.686,35.6h2.723L52.5,44.291Zm-3.086-3.129h2.178L48.32,38.033Z" transform="translate(-24.72 -35.6)" fill="#6a7474"/>
    <path id="Path_102" data-name="Path 102" d="M54.371,43.074a4.487,4.487,0,0,1,0-6.257A4.482,4.482,0,0,1,57.638,35.6a4.888,4.888,0,0,1,2.723.7A4.771,4.771,0,0,1,62,38.381H59.454a1.6,1.6,0,0,0-1.634-.869,2.386,2.386,0,0,0-1.815.7,3.017,3.017,0,0,0-.726,1.738A1.974,1.974,0,0,0,56,41.684a2.152,2.152,0,0,0,1.815.7,2.71,2.71,0,0,0,1.271-.348,1.6,1.6,0,0,0,.726-1.043H57.275V39.424h4.9v1.564a4.1,4.1,0,0,1-1.271,2.26,7.688,7.688,0,0,1-1.271.869A5.5,5.5,0,0,1,58,44.465,5.678,5.678,0,0,1,54.371,43.074Z" transform="translate(-16.973 -35.6)" fill="#6a7474"/>
    <path id="Path_103" data-name="Path 103" d="M69.117,44.291,68.572,42.9H65.3l-.545,1.391H62.4L65.486,35.6h2.723L71.3,44.291Zm-3.086-3.129h2.178L67.12,38.033Z" transform="translate(-9.39 -35.6)" fill="#6a7474"/>
    <path id="Path_104" data-name="Path 104" d="M78.354,35.6v1.564l-3.812,5.388h3.812v1.564H72V42.553l3.812-5.388H72V35.6Z" transform="translate(-1.563 -35.6)" fill="#6a7474"/>
    <path id="Path_105" data-name="Path 105" d="M80.5,44.291V35.6h2.178v8.691Z" transform="translate(5.368 -35.6)" fill="#6a7474"/>
    <path id="Path_106" data-name="Path 106" d="M92.809,35.6h2.178v8.691H92.809L89.178,38.9v5.388H87V35.6h2.178l3.631,5.388Z" transform="translate(10.668 -35.6)" fill="#6a7474"/>
    <path id="Path_107" data-name="Path 107" d="M102.146,35.6v1.564H98.878v1.912h2.9v1.564h-2.9v2.086h3.268v1.564H96.7V35.6Z" transform="translate(18.578 -35.6)" fill="#6a7474"/>
  </g>
</svg>
