<svg xmlns="http://www.w3.org/2000/svg" width="23.13" height="36" viewBox="0 0 23.13 36">
  <g id="concept" transform="translate(-0.001 0.001)">
    <path id="Path_5" data-name="Path 5" d="M111.483,451.527h-4.462a1.946,1.946,0,0,1-1.946-1.946v-2.627h8.354v2.627a1.946,1.946,0,0,1-1.946,1.946Zm0,0" transform="translate(-97.685 -415.527)" fill="#426175"/>
    <path id="Path_6" data-name="Path 6" d="M99.918,358.407H91.6a1.037,1.037,0,0,1-1.037-1.037v-7.083a1.037,1.037,0,0,1,1.037-1.037h8.322a1.037,1.037,0,0,1,1.037,1.037v7.083A1.037,1.037,0,0,1,99.918,358.407Zm0,0" transform="translate(-84.191 -324.695)" fill="#cdd6df"/>
    <path id="Path_7" data-name="Path 7" d="M185.924,349.25H183.07v9.157h2.854a1.037,1.037,0,0,0,1.037-1.037v-7.083a1.037,1.037,0,0,0-1.037-1.037Zm0,0" transform="translate(-170.197 -324.694)" fill="#abb2ba"/>
    <path id="Path_8" data-name="Path 8" d="M23.131,11.565a11.565,11.565,0,1,0-23.13,0A12.242,12.242,0,0,0,2.01,18.239c1.757,2.693,3.02,4.781,3.3,7.732a1.393,1.393,0,0,0,1.385,1.266H16.44a1.393,1.393,0,0,0,1.384-1.266c.279-2.951,1.541-5.039,3.3-7.732a12.241,12.241,0,0,0,2.009-6.674Zm0,0" transform="translate(0 -0.001)" fill="#244d4d"/>
    <path id="Path_9" data-name="Path 9" d="M138.761,0a11.641,11.641,0,0,0-1.945.164,11.568,11.568,0,0,1,9.62,11.4,12.242,12.242,0,0,1-2.009,6.674c-2,3.062-3.356,5.342-3.356,9h2.564a1.393,1.393,0,0,0,1.384-1.266c.279-2.951,1.541-5.039,3.3-7.733a12.244,12.244,0,0,0,2.009-6.674A11.565,11.565,0,0,0,138.761,0Zm0,0" transform="translate(-127.195 0)" fill="#123333"/>
    <path id="Path_10" data-name="Path 10" d="M74.966,86.634H74.5a.7.7,0,0,1-.675-.5,5.687,5.687,0,0,0-.451-1.076.7.7,0,0,1,.122-.836l.337-.337a.707.707,0,0,0,0-1l-.569-.569a.706.706,0,0,0-1,0l-.338.337a.7.7,0,0,1-.836.122,5.68,5.68,0,0,0-1.076-.451.7.7,0,0,1-.5-.674v-.47a.707.707,0,0,0-.707-.707H68a.707.707,0,0,0-.707.707v.44a.7.7,0,0,1-.508.678,5.671,5.671,0,0,0-1.109.446.7.7,0,0,1-.826-.127l-.3-.3a.706.706,0,0,0-1,0l-.569.569a.706.706,0,0,0,0,1l.27.27a.7.7,0,0,1,.118.842,5.677,5.677,0,0,0-.485,1.135.707.707,0,0,1-.678.5h-.362a.707.707,0,0,0-.707.707v.805a.707.707,0,0,0,.707.707h.334a.7.7,0,0,1,.679.507,5.687,5.687,0,0,0,.48,1.173.7.7,0,0,1-.123.833l-.233.233a.706.706,0,0,0,0,1l.569.569a.706.706,0,0,0,1,0l.233-.233a.7.7,0,0,1,.833-.123,5.671,5.671,0,0,0,1.173.48.7.7,0,0,1,.507.679V94.3a.707.707,0,0,0,.707.707h.805a.707.707,0,0,0,.706-.707V93.94a.707.707,0,0,1,.5-.678,5.672,5.672,0,0,0,1.135-.485.7.7,0,0,1,.842.118l.27.27a.706.706,0,0,0,1,0l.569-.569a.706.706,0,0,0,0-1l-.3-.3a.7.7,0,0,1-.127-.826,5.671,5.671,0,0,0,.446-1.109.7.7,0,0,1,.678-.508h.44a.707.707,0,0,0,.707-.707V87.34a.706.706,0,0,0-.706-.707Zm-6.56,4.529a3.419,3.419,0,1,1,3.419-3.419A3.419,3.419,0,0,1,68.407,91.162Zm0,0" transform="translate(-56.841 -74.819)" fill="#f2f2f2"/>
    <g id="Group_18" data-name="Group 18" transform="translate(6.368 28.812)">
      <path id="Path_11" data-name="Path 11" d="M90.559,409.785h10.4v1.071h-10.4Zm0,0" transform="translate(-90.559 -409.785)" fill="#abb2ba"/>
      <path id="Path_12" data-name="Path 12" d="M90.559,439.336h10.4v1.071h-10.4Zm0,0" transform="translate(-90.559 -437.258)" fill="#abb2ba"/>
    </g>
  </g>
</svg>
