<svg xmlns="http://www.w3.org/2000/svg" width="36" height="36" viewBox="0 0 36 36">
  <g id="exchange" opacity="0.96">
    <path id="Path_13" data-name="Path 13" d="M269.328,29.062a19.311,19.311,0,0,0,3.246-10.838,19.057,19.057,0,0,0-4.854-12.886A15.748,15.748,0,0,0,256,0V2.136a13.9,13.9,0,0,1,10.346,4.712,16.824,16.824,0,0,1,4.285,11.376,17.054,17.054,0,0,1-2.832,9.517l-.223-2.8-1.935.186.508,6.382,5.8-.558-.169-2.127Z" transform="translate(-236.573 0)" fill="#abb2ba"/>
    <path id="Path_14" data-name="Path 14" d="M1.942,82.626a17.054,17.054,0,0,1,2.832-9.517L5,75.906l1.935-.186-.508-6.382-5.8.558.169,2.127,2.457-.236A19.312,19.312,0,0,0,0,82.626,19.057,19.057,0,0,0,4.854,95.512a15.748,15.748,0,0,0,11.719,5.337V98.713A13.9,13.9,0,0,1,6.228,94,16.824,16.824,0,0,1,1.942,82.626Z" transform="translate(0 -64.849)" fill="#cdd6df"/>
    <path id="Path_15" data-name="Path 15" d="M198.949,195a3.949,3.949,0,1,0,3.949,3.949A3.954,3.954,0,0,0,198.949,195Zm0,5.956a2.007,2.007,0,1,1,2.007-2.007A2.009,2.009,0,0,1,198.949,200.956Z" transform="translate(-180.949 -180.949)" fill="#244d4d"/>
    <path id="Path_16" data-name="Path 16" d="M129.114,111.682l-2.189.71a9.024,9.024,0,0,0-2-2.738l1.355-1.86-1.8-1.308-1.353,1.858a8.944,8.944,0,0,0-3.229-1.049V105h-2.231v2.295a8.946,8.946,0,0,0-3.229,1.049l-1.353-1.858-1.8,1.308,1.355,1.86a9.021,9.021,0,0,0-2,2.738l-2.189-.71-.689,2.117,2.187.709a8.971,8.971,0,0,0,0,3.389l-2.187.709.689,2.117,2.189-.71a9.024,9.024,0,0,0,2,2.738l-1.355,1.86,1.8,1.308,1.353-1.858a8.944,8.944,0,0,0,3.229,1.049V127.4h2.231V125.11a8.945,8.945,0,0,0,3.229-1.049l1.353,1.858,1.8-1.308-1.355-1.86a9.022,9.022,0,0,0,2-2.738l2.189.71.689-2.117-2.187-.709a8.971,8.971,0,0,0,0-3.389l2.187-.709Zm-10.335,11.271a6.751,6.751,0,1,1,6.767-6.751A6.767,6.767,0,0,1,118.779,122.953Z" transform="translate(-100.779 -98.202)" fill="#244d4d"/>
  </g>
</svg>
