<svg xmlns="http://www.w3.org/2000/svg" width="36" height="36" viewBox="0 0 36 36">
  <g id="tools" transform="translate(0 0)">
    <path id="Path_31" data-name="Path 31" d="M34.032,11.475A6.722,6.722,0,0,1,26.9,13.012l-4.36,4.361-5.17,5.17L13.012,26.9a6.724,6.724,0,0,1-8.4,8.759.542.542,0,0,1-.208-.9L7.873,31.3l-.569-2.6-2.6-.567L1.237,31.595a.542.542,0,0,1-.9-.208,6.724,6.724,0,0,1,8.759-8.4L22.988,9.1a6.724,6.724,0,0,1,8.4-8.759.542.542,0,0,1,.208.9L28.127,4.7l.567,2.6,2.6.569,3.468-3.467a.542.542,0,0,1,.9.208,6.72,6.72,0,0,1-1.631,6.861Z" transform="translate(0 0)" fill="#244d4d"/>
    <g id="Group_31" data-name="Group 31" transform="translate(0 0)">
      <path id="Path_29" data-name="Path 29" d="M3.449,7.847a1.055,1.055,0,0,0,1.583.105l.711-.712L13.8,15.3l1.491-1.491-8.06-8.06.715-.715a1.054,1.054,0,0,0-.105-1.583L3.619.219A1.055,1.055,0,0,0,2.233.311L.31,2.234A1.053,1.053,0,0,0,.217,3.621Z" transform="translate(0 -0.002)" fill="#aeb4bc"/>
      <path id="Path_30" data-name="Path 30" d="M269.1,275.568q0-.034,0-.07a5.245,5.245,0,0,0-1.017-2.248l5.17-5.17a4.936,4.936,0,0,0,2.319,1.013Z" transform="translate(-249.231 -249.231)" fill="#aeb4bc"/>
      <path id="Path_32" data-name="Path 32" d="M313.939,306.846l-7.206-7.206-7.043,7.045,7.2,7.206a2.322,2.322,0,0,0,3.286,0l3.757-3.757A2.328,2.328,0,0,0,313.939,306.846Z" transform="translate(-278.618 -278.572)" fill="#aeb4bc"/>
    </g>
  </g>
</svg>
