<svg xmlns="http://www.w3.org/2000/svg" width="60" height="50.107" viewBox="0 0 60 50.107">
  <g id="left-quote" transform="translate(0 -7.858)">
    <g id="Group_75" data-name="Group 75" transform="translate(0 7.858)">
      <path id="Path_84" data-name="Path 84" d="M19.2,30.567a15.9,15.9,0,0,0-4.393-.641A13.805,13.805,0,0,0,9.3,31.054c1.385-5.069,4.711-13.815,11.337-14.8a1.574,1.574,0,0,0,1.284-1.132l1.448-5.18a1.574,1.574,0,0,0-1.3-1.983,11,11,0,0,0-1.482-.1c-7.953,0-15.83,8.3-19.154,20.188C-.517,35.019-1.089,45.5,3.717,52.1c2.689,3.693,6.613,5.664,11.662,5.861h.062a13.959,13.959,0,0,0,3.763-27.4Z" transform="translate(0 -7.858)" fill="#244d4d"/>
      <path id="Path_85" data-name="Path 85" d="M76.221,37.159a13.992,13.992,0,0,0-8.392-6.592,15.9,15.9,0,0,0-4.392-.641,13.809,13.809,0,0,0-5.509,1.128c1.385-5.069,4.711-13.815,11.338-14.8a1.575,1.575,0,0,0,1.284-1.132L72,9.941a1.574,1.574,0,0,0-1.3-1.983,10.985,10.985,0,0,0-1.482-.1c-7.953,0-15.83,8.3-19.154,20.188C48.109,35.019,47.537,45.5,52.344,52.1,55.033,55.8,58.957,57.768,64,57.965h.062A13.959,13.959,0,0,0,76.221,37.159Z" transform="translate(-18.022 -7.858)" fill="#244d4d"/>
    </g>
  </g>
</svg>
