<svg width="67" height="11" viewBox="0 0 67 11" fill="none" xmlns="http://www.w3.org/2000/svg">
<path d="M0.858978 10.4516V0.139099H2.92148V8.69379H5.04257V10.4516H0.858978Z" fill="#244D4D"/>
<path d="M10.4894 10.5453C9.66523 10.5453 9.03437 10.2973 8.59687 9.80121C8.16327 9.30121 7.94648 8.58051 7.94648 7.6391V2.74066C7.94648 1.85785 8.16132 1.18793 8.59101 0.730896C9.0246 0.273865 9.65742 0.0453491 10.4894 0.0453491C11.3215 0.0453491 11.9523 0.273865 12.382 0.730896C12.8156 1.18793 13.0324 1.85785 13.0324 2.74066V7.6391C13.0324 8.58051 12.8137 9.30121 12.3762 9.80121C11.9426 10.2973 11.3137 10.5453 10.4894 10.5453ZM10.507 8.64691C10.8195 8.64691 10.9758 8.34418 10.9758 7.73871V2.70551C10.9758 2.19769 10.8234 1.94379 10.5187 1.94379C10.175 1.94379 10.0031 2.20355 10.0031 2.72308V7.75043C10.0031 8.07074 10.0422 8.30121 10.1203 8.44183C10.1984 8.57855 10.3273 8.64691 10.507 8.64691Z" fill="#244D4D"/>
<path d="M15.9832 10.4516L16.9793 0.139099H20.4773L21.4559 10.4516H19.5047L19.3582 8.78754H18.116L17.9871 10.4516H15.9832ZM18.2625 7.14105H19.2L18.7488 1.89691H18.6551L18.2625 7.14105Z" fill="#244D4D"/>
<path d="M24.4887 10.4516V0.139099H27.3246C28.0668 0.139099 28.6254 0.34613 29.0004 0.760193C29.3754 1.17035 29.5629 1.77191 29.5629 2.56488V7.39301C29.5629 8.36957 29.391 9.12347 29.0473 9.65472C28.7074 10.186 28.1098 10.4516 27.2543 10.4516H24.4887ZM26.5629 8.62933H26.9203C27.2992 8.62933 27.4887 8.44574 27.4887 8.07855V2.75824C27.4887 2.41449 27.4418 2.19379 27.348 2.09613C27.2582 1.99457 27.0727 1.94379 26.7914 1.94379H26.5629V8.62933Z" fill="#244D4D"/>
<path d="M32.7129 10.4516V0.139099H34.7051V10.4516H32.7129Z" fill="#244D4D"/>
<path d="M37.9254 10.4516V0.139099H40.0465L40.9957 5.07855V0.139099H42.9879V10.4516H40.9723L39.941 5.29535V10.4516H37.9254Z" fill="#244D4D"/>
<path d="M48.4289 10.5453C46.9562 10.5453 46.2199 9.49066 46.2199 7.38129V2.93402C46.2199 1.00824 47.0637 0.0453491 48.7512 0.0453491C49.4465 0.0453491 49.9797 0.185974 50.3508 0.467224C50.7219 0.744568 50.9777 1.15082 51.1184 1.68597C51.259 2.22113 51.3293 2.87347 51.3293 3.64301H49.3137V2.72894C49.3137 2.50629 49.2824 2.32074 49.2199 2.1723C49.1613 2.01996 49.0363 1.94379 48.8449 1.94379C48.6066 1.94379 48.4484 2.02386 48.3703 2.18402C48.2961 2.34418 48.259 2.51996 48.259 2.71136V7.70941C48.259 7.98676 48.2941 8.21332 48.3644 8.3891C48.4387 8.56097 48.5812 8.64691 48.7922 8.64691C49.0109 8.64691 49.1555 8.56097 49.2258 8.3891C49.3 8.21332 49.3371 7.98285 49.3371 7.69769V6.22699H48.7863V4.44574H51.3059V10.4516H50.4797L50.1281 9.58441C49.7687 10.225 49.2023 10.5453 48.4289 10.5453Z" fill="#244D4D"/>
<path d="M54.3914 10.4457V8.69965H56.4891V10.4457H54.3914Z" fill="#244D4D"/>
<path d="M59.5336 10.4457V8.69965H61.6312V10.4457H59.5336Z" fill="#244D4D"/>
<path d="M64.6758 10.4457V8.69965H66.7734V10.4457H64.6758Z" fill="#244D4D"/>
</svg>
