<svg xmlns="http://www.w3.org/2000/svg" width="36" height="36" viewBox="0 0 36 36">
  <g id="factory_1_" data-name="factory (1)" transform="translate(-1 -1)">
    <g id="Group_39" data-name="Group 39" transform="translate(1 1)">
      <path id="Path_34" data-name="Path 34" d="M32.287,14.935H27.778l-1.161,9.29H21.9v-9.29H19.581V12.613H16.1V6.806H14.88L14.3,1H10.926l-.581,5.806H9.129V4.484H4.484V6.806H3.323V20.533a7.519,7.519,0,0,0,0,10.869V37H35.839V24.226H33.448ZM31.261,16.1l.145,1.161H28.658L28.8,16.1Zm-2.749,2.323h3.039l.726,5.806H27.786Zm-7.771,5.806H15.886a7.565,7.565,0,0,0-5.6-5.6V16.1H20.742ZM10.7,31.972a8.048,8.048,0,0,0,.808-1.94h1.959A6.408,6.408,0,0,1,10.7,31.972Zm-7.08-1.94H5.584a8.025,8.025,0,0,0,.808,1.94A6.415,6.415,0,0,1,3.625,30.032ZM6.392,19.963a8.025,8.025,0,0,0-.808,1.94H3.625A6.414,6.414,0,0,1,6.392,19.963Zm.415-8.512H4.484V10.29H6.806Zm0,1.161v1.161H4.484V12.613Zm0,2.323V16.1H4.484V14.935Zm5.213,10.452a15.924,15.924,0,0,0-.237-2.323H14.23a6.34,6.34,0,0,1,.676,2.323Zm-5.781,0a14.464,14.464,0,0,1,.267-2.323h4.087a14.4,14.4,0,0,1,.267,2.323Zm4.621,1.161a14.464,14.464,0,0,1-.267,2.323H6.505a14.4,14.4,0,0,1-.267-2.323Zm.654-4.645a8.024,8.024,0,0,0-.808-1.94,6.4,6.4,0,0,1,2.766,1.94Zm-1.217,0H6.8c.458-1.436,1.124-2.323,1.747-2.323S9.837,20.467,10.3,21.9ZM5.315,23.065a15.924,15.924,0,0,0-.237,2.323H2.191a6.329,6.329,0,0,1,.676-2.323Zm-.237,3.484a15.924,15.924,0,0,0,.237,2.323H2.866a6.34,6.34,0,0,1-.676-2.323ZM6.8,30.032H10.3c-.458,1.436-1.124,2.323-1.747,2.323S7.259,31.468,6.8,30.032Zm7.429-1.161H11.783a15.924,15.924,0,0,0,.237-2.323h2.886A6.34,6.34,0,0,1,14.231,28.871Zm4.189-13.935H12.613V13.774h5.806Zm-3.484-2.323H11.452v2.323H9.129v3.513c-.192-.015-.384-.03-.581-.03s-.388.015-.581.03V7.968h6.968ZM11.977,2.161h1.271l.465,4.645h-2.2ZM5.645,5.645H7.968V6.806H5.645ZM6.806,7.968V9.129H4.484V7.968Zm-2.323,9.29H6.806V18.63a7.488,7.488,0,0,0-2.323.987Zm0,15.06a7.495,7.495,0,0,0,8.129,0v3.52H4.484Zm13.935,3.52H16.1V31.194h2.323Zm6.968,0H23.065V31.194h2.323Zm6.968,0H30.032V31.194h2.323Zm1.161,0V30.032H28.871v5.806H26.548V30.032H21.9v5.806H19.581V30.032H14.935v5.806H13.774V31.4a7.543,7.543,0,0,0,2.112-3.692H34.677v8.129Zm1.161-9.29H16.067c.015-.192.03-.384.03-.581s-.015-.388-.03-.581h18.61Z" transform="translate(-1 -1)" fill="#6a7474"/>
      <path id="Path_35" data-name="Path 35" d="M54.226,9.323H53.049A2.617,2.617,0,0,0,50.452,7H49V8.161h1.452A1.453,1.453,0,0,1,51.9,9.613v.871h2.323a1.742,1.742,0,0,1,0,3.484H52.484a1.744,1.744,0,0,0-1.742,1.742v.581H51.9V15.71a.581.581,0,0,1,.581-.581h1.742a2.9,2.9,0,0,0,0-5.806Z" transform="translate(-21.129 -3.516)" fill="#6a7474"/>
      <path id="Path_36" data-name="Path 36" d="M38.742,15.129h4.065a.581.581,0,0,1,.581.581v.581h1.161V15.71a1.744,1.744,0,0,0-1.742-1.742H38.742a.581.581,0,1,1,0-1.161h3.484V11.645H41.065a1.742,1.742,0,1,1,0-3.484h1.742V7H41.065a2.907,2.907,0,0,0-2.9,2.9,2.873,2.873,0,0,0,.6,1.742h-.015a1.742,1.742,0,0,0,0,3.484Z" transform="translate(-16.097 -3.516)" fill="#6a7474"/>
      <path id="Path_37" data-name="Path 37" d="M31,29h1.161v1.161H31Z" transform="translate(-13.581 -12.742)" fill="#244d4d"/>
      <path id="Path_38" data-name="Path 38" d="M23,29h1.161v1.161H23Z" transform="translate(-10.226 -12.742)" fill="#244d4d"/>
      <path id="Path_39" data-name="Path 39" d="M19,29h1.161v1.161H19Z" transform="translate(-8.548 -12.742)" fill="#244d4d"/>
      <path id="Path_40" data-name="Path 40" d="M27,29h1.161v1.161H27Z" transform="translate(-11.903 -12.742)" fill="#244d4d"/>
      <path id="Path_41" data-name="Path 41" d="M31,33h1.161v1.161H31Z" transform="translate(-13.581 -14.419)" fill="#244d4d"/>
      <path id="Path_42" data-name="Path 42" d="M27,33h1.161v1.161H27Z" transform="translate(-11.903 -14.419)" fill="#244d4d"/>
      <path id="Path_43" data-name="Path 43" d="M27,37h1.161v1.161H27Z" transform="translate(-11.903 -16.097)" fill="#244d4d"/>
      <path id="Path_44" data-name="Path 44" d="M31,37h1.161v1.161H31Z" transform="translate(-13.581 -16.097)" fill="#244d4d"/>
    </g>
  </g>
</svg>
