<svg xmlns="http://www.w3.org/2000/svg" width="55.321" height="67" viewBox="0 0 55.321 67">
  <g id="color_line" data-name="color line" transform="translate(-9.086 -3.284)">
    <path id="Path_53" data-name="Path 53" d="M33.033,67.351v.111a4.539,4.539,0,1,0,9.073,0v-.111Z" transform="translate(-0.821 -2.198)" fill="#707583"/>
    <path id="Path_54" data-name="Path 54" d="M37.552,72.465a5.022,5.022,0,0,1-5.022-5.022v-.111a.483.483,0,0,1,.483-.483h9.073a.483.483,0,0,1,.483.483v.111a5.022,5.022,0,0,1-5.017,5.022Zm-4.037-4.647a4.056,4.056,0,0,0,8.072,0Z" transform="translate(-0.804 -2.181)" fill="#abb2ba"/>
    <path id="Path_55" data-name="Path 55" d="M45.887,55.532c.579-4.309,2.7-8.008,5.663-11.385a19.5,19.5,0,0,0,3.588-19.521A18.155,18.155,0,0,0,44.3,13.531C30.626,8.51,17.78,18.485,17.78,31.466a19.185,19.185,0,0,0,4.762,12.682c2.956,3.38,5.082,7.076,5.664,11.386Z" transform="translate(-0.298 -0.306)" fill="#244d4d"/>
    <path id="Path_56" data-name="Path 56" d="M51.694,44.151a21.625,21.625,0,0,0-5.659,11.376h-1.97a23.387,23.387,0,0,1,5.089-8.7,19.507,19.507,0,0,0,3.583-19.517,18.155,18.155,0,0,0-10.845-11.1A19.507,19.507,0,0,0,21.98,19.651a19.443,19.443,0,0,1,22.462-6.123,18.136,18.136,0,0,1,10.835,11.1A19.507,19.507,0,0,1,51.694,44.151Z" transform="translate(-0.442 -0.305)" fill="#386565"/>
    <g id="Group_47" data-name="Group 47" transform="translate(9.086 3.284)">
      <path id="Path_57" data-name="Path 57" d="M37.635,8.209a.483.483,0,0,1-.483-.483V3.767a.483.483,0,0,1,.966,0V7.726A.483.483,0,0,1,37.635,8.209Z" transform="translate(-10.049 -3.284)" fill="#6a7474"/>
      <path id="Path_58" data-name="Path 58" d="M25.552,11.489a.483.483,0,0,1-.418-.241L23.156,7.822a.483.483,0,1,1,.835-.483l1.978,3.43a.483.483,0,0,1-.418.724Z" transform="translate(-9.566 -3.414)" fill="#6a7474"/>
      <path id="Path_59" data-name="Path 59" d="M16.728,20.371a.483.483,0,0,1-.241-.065l-3.425-1.979a.483.483,0,1,1,.483-.836l3.425,1.978a.483.483,0,0,1-.241.9Z" transform="translate(-9.214 -3.769)" fill="#6a7474"/>
      <path id="Path_60" data-name="Path 60" d="M13.528,32.475H9.569a.483.483,0,0,1,0-.966h3.959a.483.483,0,0,1,0,.966Z" transform="translate(-9.086 -4.252)" fill="#6a7474"/>
      <path id="Path_61" data-name="Path 61" d="M13.383,46.464a.483.483,0,0,1-.241-.9l3.428-1.978a.483.483,0,1,1,.483.836L13.622,46.4a.483.483,0,0,1-.239.067Z" transform="translate(-9.217 -4.664)" fill="#6a7474"/>
      <path id="Path_62" data-name="Path 62" d="M49.8,11.489a.483.483,0,0,1-.418-.724L51.364,7.34a.483.483,0,1,1,.835.483l-1.977,3.429a.483.483,0,0,1-.418.238Z" transform="translate(-10.466 -3.414)" fill="#6a7474"/>
      <path id="Path_63" data-name="Path 63" d="M58.578,20.371a.483.483,0,0,1-.241-.9l3.425-1.978a.483.483,0,1,1,.483.836l-3.425,1.978a.483.483,0,0,1-.241.065Z" transform="translate(-10.767 -3.769)" fill="#6a7474"/>
      <path id="Path_64" data-name="Path 64" d="M65.714,32.475H61.755a.483.483,0,0,1,0-.966h3.959a.483.483,0,1,1,0,.966Z" transform="translate(-10.876 -4.252)" fill="#6a7474"/>
      <path id="Path_65" data-name="Path 65" d="M61.924,46.464a.483.483,0,0,1-.241-.065l-3.425-1.978a.483.483,0,1,1,.483-.836l3.425,1.978a.483.483,0,0,1-.241.9Z" transform="translate(-10.764 -4.664)" fill="#6a7474"/>
    </g>
    <path id="Path_66" data-name="Path 66" d="M41.561,56.8a.461.461,0,0,1-.109-.013.483.483,0,0,1-.361-.579L45.566,37,41.6,38.47a.49.49,0,0,1-.418-.04L37.4,36.148,33.62,38.431a.483.483,0,0,1-.418.04L29.233,37l4.476,19.213a.483.483,0,1,1-.942.219l-4.68-20.086a.481.481,0,0,1,.634-.562l4.594,1.706,3.829-2.318a.483.483,0,0,1,.5,0l3.83,2.318,4.6-1.709a.483.483,0,0,1,.638.562L42.031,56.424a.483.483,0,0,1-.47.376Z" transform="translate(-0.651 -1.091)" fill="#abb2ba"/>
    <path id="Path_67" data-name="Path 67" d="M46.257,57.071v7.767a3.3,3.3,0,0,1-3.366,2.93H31.34a2.76,2.76,0,0,1-2.764-2.93V57.071Z" transform="translate(-0.668 -1.845)" fill="#abb2ba"/>
    <path id="Path_68" data-name="Path 68" d="M42.874,68.235H31.323a3.223,3.223,0,0,1-3.246-3.414V57.054a.483.483,0,0,1,.483-.483H46.24a.483.483,0,0,1,.483.483v7.767A3.747,3.747,0,0,1,42.874,68.235Zm-13.833-10.7v7.284a2.266,2.266,0,0,0,2.28,2.448H42.874c1.361,0,2.883-1.047,2.883-2.448V57.537Z" transform="translate(-0.651 -1.828)" fill="#919395"/>
    <path id="Path_69" data-name="Path 69" d="M27.182,61.868a.483.483,0,0,1-.048-.966l20.19-2.069a.483.483,0,0,1,.1.961L27.231,61.865Z" transform="translate(-0.603 -1.905)" fill="#919395"/>
    <path id="Path_70" data-name="Path 70" d="M27.336,65.977a.483.483,0,1,1-.048-.966L47.329,62.96a.489.489,0,0,1,.529.432.483.483,0,0,1-.431.529L27.385,65.975Z" transform="translate(-0.609 -2.047)" fill="#919395"/>
    <path id="Path_71" data-name="Path 71" d="M45.87,56H28.188a.483.483,0,0,1-.483-.418c-.515-3.813-2.33-7.454-5.549-11.133A19.744,19.744,0,0,1,25.73,15.252a20.126,20.126,0,0,1,18.715-2.19,18.745,18.745,0,0,1,11.131,11.4,20.049,20.049,0,0,1-3.681,20c-3.219,3.676-5.032,7.317-5.547,11.131A.483.483,0,0,1,45.87,56Zm-17.265-.966H45.453a22.306,22.306,0,0,1,5.716-11.219,19.093,19.093,0,0,0,3.494-19.044,17.769,17.769,0,0,0-10.552-10.8,19.171,19.171,0,0,0-17.824,2.078,18.779,18.779,0,0,0-3.4,27.768,22.317,22.317,0,0,1,5.719,11.218Z" transform="translate(-0.281 -0.289)" fill="#919395"/>
    <path id="Path_72" data-name="Path 72" d="M25.858,43.779a.628.628,0,0,1-.474-.216l-.091-.1c-.119-.135-.228-.276-.338-.418l-.136-.173a.628.628,0,0,1,.983-.782l.144.184c.1.122.193.243.29.359l.1.109a.628.628,0,0,1-.474,1.039Z" transform="translate(-0.535 -1.323)" fill="#fff"/>
    <path id="Path_73" data-name="Path 73" d="M23.406,39.792a.628.628,0,0,1-.564-.353,15.923,15.923,0,0,1-.893-11.645.628.628,0,1,1,1.2.37A14.681,14.681,0,0,0,23.97,38.89a.629.629,0,0,1-.564.9Z" transform="translate(-0.417 -0.826)" fill="#fff"/>
  </g>
</svg>
